<?xml version="1.0" encoding="utf-8"?>
<!-- Generator: Adobe Illustrator 16.0.0, SVG Export Plug-In . SVG Version: 6.00 Build 0)  -->
<!DOCTYPE svg PUBLIC "-//W3C//DTD SVG 1.1//EN" "http://www.w3.org/Graphics/SVG/1.1/DTD/svg11.dtd">
<svg version="1.1" id="Layer_1" xmlns="http://www.w3.org/2000/svg" xmlns:xlink="http://www.w3.org/1999/xlink" x="0px" y="0px"
	 width="100px" height="100px" viewBox="0 0 100 100" enable-background="new 0 0 100 100" xml:space="preserve">
<g>
	<path d="M-397.898-100.526c0.016-0.009,0.094-0.03,0.109-0.035c0.405-0.125,0.738-0.43,0.922-0.814
		c0.186-0.385,0.209-0.828,0.062-1.23l-0.618-1.698c-0.299-0.823-1.208-1.248-2.031-0.948l-77.502,28.209
		c-0.823,0.3-1.248,1.209-0.948,2.032l0.617,1.694c0.145,0.4,0.465,0.716,0.853,0.893c0.378,0.173,0.826,0.181,1.219,0.038
		c1.304-0.488,2.822,0.183,3.309,1.52c0.483,1.327-0.204,2.799-1.455,3.257c-0.037,0.011-0.109,0.034-0.145,0.047
		c-0.823,0.299-1.247,1.208-0.948,2.032l1.076,2.954c0.147,0.404,0.453,0.732,0.846,0.907c0.375,0.167,0.802,0.18,1.186,0.041
		c0.03-0.011,0.055-0.021,0.104-0.042c1.318-0.457,2.768,0.23,3.245,1.544c0.483,1.327-0.204,2.8-1.455,3.259
		c-0.037,0.01-0.108,0.033-0.145,0.046c-0.823,0.3-1.248,1.209-0.948,2.032l0.979,2.687c0.299,0.823,1.277,1.22,2.1,0.921
		c1.327-0.483,2.799,0.203,3.282,1.529c0.483,1.327-0.203,2.8-1.454,3.258c-0.039,0.011-0.11,0.033-0.146,0.046
		c-0.823,0.3-1.247,1.209-0.948,2.032l1.076,2.953c0.299,0.823,1.276,1.219,2.099,0.92c1.327-0.483,2.799,0.203,3.282,1.531
		c0.483,1.327-0.204,2.8-1.455,3.257c-0.037,0.011-0.109,0.034-0.145,0.047c-0.823,0.299-1.248,1.208-0.948,2.031l0.561,1.539
		c0.299,0.822,1.208,1.248,2.031,0.947l77.502-28.208c0.823-0.299,1.248-1.209,0.948-2.032l-0.563-1.542
		c-0.147-0.404-0.451-0.731-0.844-0.906c-0.375-0.167-0.802-0.181-1.188-0.042c-0.036,0.012-0.113,0.047-0.145,0.062
		c-1.327,0.483-2.801-0.204-3.284-1.531c-0.483-1.327,0.204-2.799,1.515-3.277h0.002c0.018-0.005,0.097-0.029,0.115-0.035
		c0.4-0.135,0.745-0.427,0.935-0.813c0.188-0.387,0.21-0.833,0.063-1.236l-1.078-2.961c-0.147-0.404-0.451-0.731-0.842-0.906
		c-0.377-0.168-0.803-0.183-1.189-0.042c-0.034,0.012-0.115,0.047-0.145,0.061c-1.327,0.483-2.801-0.204-3.284-1.531
		c-0.483-1.326,0.204-2.798,1.529-3.28c0.023-0.001,0.08-0.024,0.09-0.028c0.423-0.137,0.752-0.423,0.943-0.811
		c0.191-0.388,0.216-0.836,0.067-1.242l-0.98-2.696c-0.147-0.401-0.45-0.727-0.839-0.903c-0.389-0.175-0.835-0.188-1.231-0.031
		l-0.108,0.048c-1.327,0.483-2.799-0.204-3.282-1.531c-0.483-1.327,0.203-2.799,1.513-3.276c0-0.001,0-0.001,0-0.001
		c0.016-0.004,0.09-0.026,0.104-0.031c0.426-0.13,0.753-0.424,0.945-0.812c0.189-0.387,0.214-0.836,0.067-1.242l-1.08-2.962
		c-0.147-0.403-0.451-0.731-0.844-0.905c-0.375-0.168-0.802-0.183-1.188-0.042c-0.036,0.012-0.111,0.047-0.145,0.061
		c-1.327,0.483-2.801-0.203-3.284-1.53C-399.916-98.569-399.231-100.041-397.898-100.526z M-396.469-92.414l0.109,0.305
		c-2.105,1.444-3.058,4.182-2.145,6.689c0.911,2.507,3.403,3.994,5.943,3.746l0.014,0.04c-2.105,1.443-3.057,4.182-2.146,6.688
		c0.913,2.507,3.402,3.993,5.943,3.746l0.111,0.305c-1.732,1.188-2.665,3.253-2.438,5.345l-11.468,4.173
		c-0.823,0.3-1.248,1.209-0.948,2.032c0.299,0.823,1.21,1.247,2.033,0.948l11.568-4.211c0.603,0.762,1.385,1.349,2.261,1.719
		l-69.952,25.46c0.699-1.369,0.851-3.012,0.285-4.567c-0.897-2.464-3.318-3.942-5.852-3.74l-0.131-0.361
		c2.054-1.456,2.974-4.162,2.074-6.64c-0.897-2.464-3.32-3.94-5.852-3.74l-0.036-0.095c2.056-1.456,2.977-4.162,2.074-6.64
		c-0.902-2.478-3.346-3.958-5.855-3.753L-471-65.311c2.054-1.456,2.976-4.161,2.074-6.639c-0.597-1.64-1.869-2.842-3.387-3.408
		l51.333-18.684l1.113,3.058c0.299,0.822,1.21,1.247,2.031,0.948c0.823-0.299,1.248-1.209,0.948-2.032l-1.113-3.057l15.992-5.821
		c-0.396,0.697-0.645,1.476-0.722,2.282l-12.451,4.532c-0.823,0.299-1.248,1.209-0.949,2.032c0.299,0.823,1.21,1.247,2.033,0.948
		l11.984-4.363C-401.036-93.408-398.78-92.188-396.469-92.414z"/>
	<path d="M-411.387-72.321c-0.823,0.3-1.248,1.209-0.949,2.032l1.476,4.051c0.299,0.823,1.208,1.248,2.031,0.948
		c0.823-0.299,1.247-1.208,0.946-2.031l-1.474-4.051C-409.655-72.196-410.564-72.621-411.387-72.321z"/>
	<path d="M-414.367-80.507c-0.823,0.3-1.248,1.209-0.948,2.032l1.476,4.051c0.299,0.823,1.208,1.247,2.031,0.947
		c0.823-0.299,1.248-1.208,0.949-2.031l-1.476-4.051C-412.634-80.381-413.544-80.806-414.367-80.507z"/>
	<path d="M-417.355-88.716c-0.823,0.299-1.246,1.209-0.947,2.032l1.474,4.051c0.299,0.823,1.21,1.247,2.031,0.948
		c0.823-0.299,1.247-1.209,0.948-2.032l-1.476-4.051C-415.623-88.591-416.532-89.015-417.355-88.716z"/>
	<path d="M-456.13-65.369l-7.147,2.601c-0.823,0.299-1.248,1.209-0.946,2.032c0.299,0.822,1.208,1.247,2.031,0.948l2.081-0.758
		l2.647,7.269c0.299,0.823,1.208,1.248,2.031,0.948c0.823-0.299,1.248-1.209,0.949-2.032l-2.647-7.269l2.084-0.758
		c0.823-0.3,1.248-1.209,0.949-2.032C-454.398-65.244-455.309-65.667-456.13-65.369z"/>
	<path d="M-443.808-62.59c0.386-0.564,0.575-1.116,0.653-1.597c0.217-1.34-0.342-2.698-1.465-3.546
		c-1.685-1.266-5.016-0.112-6.851,0.688c-0.014,0.005-0.025,0.015-0.037,0.02c-0.026,0.008-0.053,0.011-0.08,0.021
		c-0.823,0.3-1.246,1.209-0.947,2.032l3.182,8.743c0.299,0.823,1.21,1.248,2.031,0.947c0.823-0.299,1.247-1.209,0.948-2.032
		l-1.001-2.749c0.382-0.152,0.734-0.311,1.053-0.475l3.611,2.863c0.448,0.354,1.028,0.429,1.527,0.247
		c0.267-0.097,0.511-0.266,0.699-0.505c0.545-0.687,0.43-1.684-0.258-2.227L-443.808-62.59z M-449.022-64.592
		c1.092-0.372,2.139-0.603,2.569-0.542c0.083,0.086,0.2,0.243,0.17,0.436c-0.067,0.409-0.687,1.062-2.171,1.666L-449.022-64.592z"/>
	<path d="M-436.764-71.358c-0.448-0.487-1.147-0.633-1.763-0.396c-0.612,0.248-1.007,0.849-0.989,1.51l0.251,9.81
		c0.023,0.875,0.75,1.567,1.626,1.544c0.879-0.022,1.567-0.75,1.544-1.626l-0.02-0.714l3.27-1.19l0.63,0.686
		c0.448,0.485,1.125,0.628,1.709,0.416c0.191-0.069,0.373-0.177,0.531-0.323c0.644-0.594,0.687-1.597,0.092-2.241L-436.764-71.358z
		 M-436.198-64.572l-0.039-1.532l1.065,1.158L-436.198-64.572z"/>
	<path d="M-430.525-74.654c-0.821,0.3-1.246,1.21-0.947,2.032l3.176,8.725c0.299,0.823,1.208,1.248,2.031,0.948
		c0.823-0.299,1.248-1.209,0.948-2.032l-3.176-8.725C-428.791-74.529-429.702-74.954-430.525-74.654z"/>
	<path d="M-419.112-78.841c-0.823,0.3-1.247,1.209-0.948,2.032l1.594,4.38l-6.002-3.793c-0.142-0.089-0.292-0.146-0.446-0.186
		c-0.034-0.011-0.069-0.021-0.104-0.028c-0.03-0.005-0.062-0.01-0.092-0.014c-0.258-0.042-0.527-0.026-0.789,0.069
		c-0.823,0.299-1.248,1.209-0.949,2.032l3.192,8.77c0.301,0.823,1.21,1.247,2.033,0.947c0.823-0.3,1.246-1.209,0.947-2.032
		l-1.612-4.43l6.053,3.826c0.423,0.267,0.938,0.314,1.391,0.149c0.159-0.058,0.313-0.143,0.451-0.255
		c0.527-0.426,0.727-1.139,0.496-1.777l-3.184-8.744C-417.38-78.716-418.29-79.14-419.112-78.841z"/>
</g>
<g>
	<path d="M-338.405-61.04h8.68c1.693,0,3.07-1.378,3.07-3.071v-8.68c0-0.107-0.021-0.208-0.032-0.313
		c0.104,0.011,0.206,0.031,0.313,0.031h8.68c0.107,0,0.209-0.021,0.313-0.031c-0.01,0.104-0.031,0.205-0.031,0.313v8.68
		c0,1.693,1.377,3.071,3.07,3.071h8.68c1.693,0,3.07-1.378,3.07-3.071v-8.68c0-0.107-0.021-0.208-0.031-0.313
		c0.104,0.011,0.205,0.031,0.313,0.031h8.68c0.107,0,0.209-0.021,0.313-0.031c-0.011,0.104-0.032,0.205-0.032,0.313v8.68
		c0,1.693,1.378,3.071,3.07,3.071h8.68c1.693,0,3.07-1.378,3.07-3.071v-8.68c0-1.692-1.377-3.07-3.07-3.07h-8.68
		c-0.106,0-0.208,0.021-0.313,0.032c0.011-0.104,0.031-0.205,0.031-0.313v-8.681c0-1.692-1.377-3.07-3.07-3.07h-8.68
		c-1.693,0-3.07,1.378-3.07,3.07v8.681c0,0.107,0.021,0.208,0.031,0.313c-0.104-0.011-0.205-0.032-0.313-0.032h-8.68
		c-0.107,0-0.209,0.021-0.313,0.032c0.01-0.104,0.031-0.205,0.031-0.313v-8.681c0-1.692-1.377-3.07-3.07-3.07h-8.68
		c-1.693,0-3.07,1.378-3.07,3.07v8.681c0,0.107,0.021,0.208,0.031,0.313c-0.104-0.011-0.205-0.032-0.313-0.032h-8.68
		c-1.693,0-3.07,1.378-3.07,3.07v8.68C-341.476-62.417-340.099-61.04-338.405-61.04z M-289.851-72.361h7.82v7.821h-7.82V-72.361z
		 M-301.882-84.392h7.82v7.82h-7.82V-84.392z M-313.913-72.361h7.82v7.821h-7.82V-72.361z M-325.944-84.392h7.82v7.82h-7.82V-84.392
		z M-337.976-72.361h7.82v7.821h-7.82V-72.361z"/>
	<path d="M-338.504-50.496h54.725c5.559,0,9.757-1.555,12.478-4.622c2.829-3.189,3.902-7.815,3.189-13.751l-0.084-0.702
		c-1.014-8.535-3.389-28.523-15.37-28.866h-52.214c-11.442,0-14.153,16.522-15.457,24.463l-0.043,0.265
		c-1.119,6.81-1.721,14.408,2.296,19.139C-346.688-51.867-343.162-50.496-338.504-50.496z M-347.826-73.142l0.044-0.266
		c1.146-6.988,3.531-21.529,12.002-21.529h52.164c8.912,0.255,11.115,18.799,11.945,25.779l0.084,0.706
		c0.588,4.899-0.197,8.604-2.332,11.011c-2.029,2.286-5.346,3.445-9.86,3.445h-54.725c-3.634,0-6.189-0.929-7.813-2.841
		C-349.427-60.5-348.757-67.475-347.826-73.142z"/>
	<path d="M-267.841-45.404h-82.964c-0.966,0-1.75,0.784-1.75,1.75c0,0.967,0.784,1.75,1.75,1.75h82.964
		c0.966,0,1.75-0.783,1.75-1.75C-266.091-44.62-266.875-45.404-267.841-45.404z"/>
</g>
<g>
	<path d="M-170.303-86.749h-37.778c-2.883,0-5.228,2.345-5.228,5.228v39.126c0,2.883,2.345,5.228,5.228,5.228h37.778
		c2.883,0,5.228-2.345,5.228-5.228v-39.126C-165.075-84.404-167.42-86.749-170.303-86.749z M-168.575-42.396
		c0,0.952-0.775,1.728-1.728,1.728h-37.778c-0.952,0-1.728-0.775-1.728-1.728v-39.126c0-0.952,0.775-1.728,1.728-1.728h37.778
		c0.952,0,1.728,0.775,1.728,1.728V-42.396z"/>
	<path d="M-205.529-34.763c-2.456,0-4.454,1.998-4.454,4.454s1.998,4.454,4.454,4.454c2.455,0,4.453-1.998,4.453-4.454
		S-203.074-34.763-205.529-34.763z"/>
	<path d="M-173.082-34.763c-2.455,0-4.453,1.998-4.453,4.454s1.998,4.454,4.453,4.454c2.457,0,4.455-1.998,4.455-4.454
		S-170.625-34.763-173.082-34.763z"/>
	<path d="M-167.345-91.913c-0.784-0.18-4.434-0.336-25.603-0.27l-0.926,0.002l-1.072-0.004c-10.671-0.049-15.244,0.027-16.311,0.271
		c-6.186,1.412-7.727,7.122-7.676,9.943c0.017,0.956,0.797,1.719,1.749,1.719c0.011,0,0.021,0,0.031,0
		c0.966-0.018,1.735-0.814,1.719-1.78c-0.003-0.218-0.036-5.33,4.944-6.468c0.868-0.165,6.094-0.229,15.527-0.186l0.219,0.001
		c0.018,0,0.033,0.005,0.051,0.005l0.816-0.002l0.583,0.002c0.013,0,0.023-0.003,0.036-0.004h0.319
		c19.185-0.062,24.104,0.07,24.813,0.182c4.943,1.129,5.053,6.259,5.056,6.503c0.001,0.963,0.781,1.744,1.745,1.747
		c0.002,0,0.004,0,0.005,0c0.964,0,1.747-0.78,1.75-1.745C-159.56-84.811-161.175-90.505-167.345-91.913z"/>
	<path d="M-198.487-108.733h3.068v12.653c0,0.967,0.784,1.75,1.75,1.75s1.75-0.783,1.75-1.75v-12.653h5.5v12.653
		c0,0.967,0.784,1.75,1.75,1.75s1.75-0.783,1.75-1.75v-12.653h2.95c0.967,0,1.75-0.783,1.75-1.75c0-0.966-0.783-1.75-1.75-1.75
		h-18.519c-0.966,0-1.75,0.784-1.75,1.75C-200.237-109.517-199.453-108.733-198.487-108.733z"/>
</g>
<g>
	<path d="M-34.916-92.669h-69.793c-3.297,0-5.979,2.683-5.979,5.98v41.722c0,3.298,2.683,5.98,5.979,5.98h69.793
		c3.297,0,5.98-2.682,5.98-5.98v-41.722C-28.936-89.986-31.619-92.669-34.916-92.669z M-32.436-86.689v32.35l-11.853,11.852h-11.181
		v-46.682h20.553C-33.549-89.169-32.436-88.057-32.436-86.689z M-58.969-42.487h-21.688v-46.682h21.688V-42.487z M-104.709-89.169
		h20.553v46.682h-11.272l-11.76-11.76v-32.442C-107.188-88.057-106.076-89.169-104.709-89.169z M-107.188-44.967v-4.331l6.811,6.811
		h-4.331C-106.076-42.487-107.188-43.6-107.188-44.967z M-34.916-42.487h-4.423l6.903-6.903v4.423
		C-32.436-43.6-33.549-42.487-34.916-42.487z"/>
	<path d="M-100.404-58.879c0.346,0.386,0.824,0.583,1.305,0.583c0.416,0,0.832-0.147,1.166-0.445l6.021-5.382
		c0.72-0.644,0.781-1.75,0.138-2.471l-2.435-2.724c-0.645-0.721-1.752-0.783-2.471-0.139l-6.021,5.382
		c-0.346,0.309-0.555,0.743-0.58,1.207c-0.027,0.463,0.133,0.918,0.441,1.264L-100.404-58.879z"/>
	<path d="M-41.619-75.455c0.338,0.315,0.768,0.472,1.195,0.472c0.468,0,0.934-0.187,1.279-0.555l2.494-2.669
		c0.66-0.706,0.623-1.813-0.082-2.474l-5.899-5.515c-0.339-0.317-0.784-0.484-1.255-0.471c-0.463,0.016-0.902,0.215-1.219,0.554
		l-2.495,2.669c-0.66,0.707-0.622,1.813,0.083,2.473L-41.619-75.455z"/>
	<path d="M-46.355-52.061c2.873,0,5.211-2.338,5.211-5.211s-2.338-5.21-5.211-5.21s-5.21,2.337-5.21,5.21
		S-49.229-52.061-46.355-52.061z M-46.355-58.982c0.943,0,1.711,0.767,1.711,1.71s-0.768,1.711-1.711,1.711s-1.71-0.768-1.71-1.711
		S-47.299-58.982-46.355-58.982z"/>
	<path d="M-93.035-36.853c-1.93,0-3.5,1.569-3.5,3.499s1.57,3.5,3.5,3.5c1.929,0,3.498-1.57,3.498-3.5S-91.106-36.853-93.035-36.853
		z"/>
	<path d="M-46.588-36.853c-1.93,0-3.5,1.569-3.5,3.499s1.57,3.5,3.5,3.5c1.929,0,3.498-1.57,3.498-3.5S-44.659-36.853-46.588-36.853
		z"/>
	<path d="M-62.306-93.86c0.966,0,1.75-0.784,1.75-1.75v-3.846c0-0.966-0.784-1.75-1.75-1.75h-15.101c-0.967,0-1.75,0.784-1.75,1.75
		v3.846c0,0.966,0.783,1.75,1.75,1.75s1.75-0.784,1.75-1.75v-2.096h11.601v2.096C-64.056-94.644-63.271-93.86-62.306-93.86z"/>
	<path d="M-77.989-102.627h16.267c0.967,0,1.75-0.783,1.75-1.75c0-0.966-0.783-1.75-1.75-1.75h-16.267
		c-0.966,0-1.75,0.784-1.75,1.75C-79.739-103.411-78.955-102.627-77.989-102.627z"/>
</g>
<g>
	<path d="M51.975-114.2c-10.529,0-19.094,8.565-19.094,19.094s8.564,19.094,19.094,19.094s19.094-8.565,19.094-19.094
		S62.504-114.2,51.975-114.2z M51.975-79.513c-8.598,0-15.594-6.995-15.594-15.594S43.377-110.7,51.975-110.7
		c8.6,0,15.594,6.995,15.594,15.594S60.574-79.513,51.975-79.513z"/>
	<path d="M56.955-98.703l-3.146,1.584v-8.325c0-0.966-0.783-1.75-1.75-1.75c-0.965,0-1.75,0.784-1.75,1.75v10.92
		c0,0.154,0.027,0.303,0.064,0.445c0.025,0.191,0.074,0.383,0.166,0.565c0.309,0.611,0.926,0.964,1.564,0.964
		c0.266,0,0.533-0.061,0.787-0.188l5.639-2.84c0.863-0.435,1.211-1.486,0.775-2.35C58.871-98.79,57.818-99.137,56.955-98.703z"/>
	<path d="M51.529-64.735c-7.326,0-13.287,5.96-13.287,13.286s5.961,13.286,13.287,13.286s13.287-5.96,13.287-13.286
		S58.855-64.735,51.529-64.735z M51.529-41.663c-5.396,0-9.787-4.39-9.787-9.786c0-5.396,4.391-9.786,9.787-9.786
		s9.787,4.391,9.787,9.786C61.316-46.053,56.926-41.663,51.529-41.663z"/>
	<path d="M20.67-63.98c-7.325,0-13.285,5.96-13.285,13.286s5.96,13.286,13.285,13.286c7.326,0,13.287-5.96,13.287-13.286
		S27.996-63.98,20.67-63.98z M20.67-40.908c-5.395,0-9.785-4.39-9.785-9.786c0-5.396,4.391-9.786,9.785-9.786
		c5.396,0,9.787,4.391,9.787,9.786C30.457-45.298,26.066-40.908,20.67-40.908z"/>
	<path d="M82.387-63.98c-7.326,0-13.285,5.96-13.285,13.286s5.959,13.286,13.285,13.286s13.285-5.96,13.285-13.286
		S89.713-63.98,82.387-63.98z M82.387-40.908c-5.396,0-9.785-4.39-9.785-9.786c0-5.396,4.389-9.786,9.785-9.786
		s9.785,4.391,9.785,9.786C92.172-45.298,87.783-40.908,82.387-40.908z"/>
	<path d="M54.449-52.249l-1.738-0.574v-4.027c0-0.966-0.785-1.75-1.75-1.75c-0.967,0-1.75,0.784-1.75,1.75v5.109
		c0,0.37,0.117,0.713,0.313,0.996c0.201,0.407,0.557,0.738,1.021,0.893l2.807,0.927c0.182,0.06,0.367,0.089,0.549,0.089
		c0.734,0,1.418-0.467,1.66-1.202C55.865-50.956,55.367-51.946,54.449-52.249z"/>
	<path d="M20.646-58.666c-0.967,0-1.75,0.784-1.75,1.75v5.108c0,0.062,0.012,0.12,0.018,0.181l-1.422,2.131
		c-0.535,0.804-0.318,1.891,0.486,2.427c0.297,0.199,0.635,0.294,0.969,0.294c0.564,0,1.121-0.273,1.457-0.778l1.641-2.458
		c0.26-0.391,0.34-0.848,0.264-1.276c0.053-0.165,0.088-0.337,0.088-0.52v-5.108C22.396-57.882,21.613-58.666,20.646-58.666z"/>
	<path d="M82.24-58.666c-0.967,0-1.75,0.784-1.75,1.75v9.381c0,0.967,0.783,1.75,1.75,1.75c0.965,0,1.75-0.783,1.75-1.75v-9.381
		C83.99-57.882,83.205-58.666,82.24-58.666z"/>
	<path d="M62.598-69.886c0.967,0,1.75-0.783,1.75-1.75c0-0.966-0.783-1.75-1.75-1.75H41.354c-0.967,0-1.75,0.784-1.75,1.75
		c0,0.967,0.783,1.75,1.75,1.75H62.598z"/>
	<path d="M28.064-34.586H13.199c-0.966,0-1.75,0.783-1.75,1.75c0,0.966,0.784,1.75,1.75,1.75h14.865c0.967,0,1.75-0.784,1.75-1.75
		C29.814-33.803,29.031-34.586,28.064-34.586z"/>
	<path d="M59.299-34.586H44.434c-0.967,0-1.75,0.783-1.75,1.75c0,0.966,0.783,1.75,1.75,1.75h14.865c0.965,0,1.75-0.784,1.75-1.75
		C61.049-33.803,60.264-34.586,59.299-34.586z"/>
	<path d="M89.33-34.586H74.465c-0.967,0-1.75,0.783-1.75,1.75c0,0.966,0.783,1.75,1.75,1.75H89.33c0.965,0,1.75-0.784,1.75-1.75
		C91.08-33.803,90.295-34.586,89.33-34.586z"/>
</g>
<g>
	<path d="M-399.338,12.29h-53.896c-1.934,0-3.5,1.566-3.5,3.5v73.134c0,1.933,1.566,3.5,3.5,3.5h53.896c1.933,0,3.5-1.567,3.5-3.5
		V15.79C-395.838,13.856-397.405,12.29-399.338,12.29z M-399.338,88.924h-53.896V15.79h53.896V88.924z"/>
	<path d="M-441.992,59.336C-441.992,59.336-441.992,59.337-441.992,59.336c4.058,4.331,9.781,6.814,15.705,6.814
		c0.008,0,0.016,0,0.023,0c0.002,0,0.004,0,0.006,0c0.004,0,0.007-0.001,0.011-0.001c5.908-0.011,11.616-2.492,15.664-6.813
		c3.752-4.004,5.819-9.228,5.819-14.708c0-5.479-2.066-10.703-5.819-14.708c-4.057-4.33-9.781-6.813-15.704-6.813
		c-5.924,0-11.648,2.483-15.704,6.813c-0.001,0.001-0.001,0.001-0.001,0.001c-3.75,4.001-5.815,9.224-5.815,14.707
		S-445.742,55.336-441.992,59.336z M-430.41,34.209c0.06-0.229,0.122-0.445,0.184-0.661c0.03-0.106,0.061-0.218,0.092-0.32
		c0.075-0.253,0.153-0.491,0.232-0.726c0.019-0.056,0.036-0.116,0.055-0.171c0.099-0.286,0.199-0.56,0.301-0.818
		c0.021-0.052,0.042-0.098,0.063-0.148c0.081-0.201,0.162-0.398,0.244-0.582c0.036-0.082,0.073-0.156,0.11-0.235
		c0.066-0.143,0.134-0.285,0.201-0.418c0.042-0.083,0.084-0.158,0.126-0.237c0.063-0.116,0.124-0.232,0.187-0.34
		c0.044-0.076,0.089-0.147,0.133-0.22c0.06-0.098,0.12-0.194,0.18-0.284c0.045-0.068,0.09-0.132,0.135-0.195
		c0.059-0.083,0.116-0.163,0.174-0.238c0.045-0.058,0.089-0.113,0.133-0.167c0.058-0.07,0.114-0.136,0.171-0.199
		c0.043-0.047,0.086-0.094,0.128-0.137c0.056-0.058,0.111-0.11,0.166-0.161c0.041-0.037,0.082-0.075,0.122-0.108
		c0.055-0.046,0.108-0.086,0.161-0.125c0.038-0.027,0.076-0.057,0.113-0.081c0.054-0.035,0.105-0.063,0.158-0.091
		c0.033-0.018,0.066-0.039,0.099-0.054c0.057-0.025,0.109-0.042,0.163-0.06c0.025-0.008,0.052-0.02,0.076-0.025
		c0.076-0.019,0.149-0.029,0.218-0.029s0.141,0.011,0.217,0.029c0.025,0.006,0.054,0.019,0.08,0.027
		c0.052,0.016,0.104,0.032,0.159,0.058c0.033,0.016,0.068,0.036,0.103,0.055c0.051,0.027,0.102,0.055,0.155,0.089
		c0.037,0.025,0.077,0.056,0.115,0.084c0.053,0.038,0.104,0.077,0.158,0.122c0.041,0.034,0.083,0.073,0.125,0.112
		c0.054,0.049,0.107,0.101,0.162,0.156c0.044,0.045,0.089,0.094,0.133,0.143c0.055,0.061,0.109,0.124,0.165,0.191
		c0.046,0.056,0.092,0.113,0.139,0.174c0.056,0.073,0.111,0.15,0.168,0.23c0.047,0.066,0.094,0.133,0.141,0.203
		c0.058,0.087,0.115,0.18,0.173,0.274c0.046,0.075,0.093,0.15,0.139,0.23c0.06,0.103,0.118,0.213,0.178,0.323
		c0.045,0.084,0.091,0.166,0.136,0.255c0.063,0.124,0.125,0.258,0.188,0.391c0.041,0.087,0.082,0.17,0.123,0.262
		c0.074,0.166,0.147,0.345,0.221,0.524c0.028,0.07,0.058,0.135,0.086,0.207c0.1,0.256,0.199,0.525,0.297,0.809
		c0.025,0.073,0.05,0.155,0.074,0.23c0.072,0.216,0.144,0.434,0.213,0.665c0.034,0.113,0.067,0.236,0.101,0.354
		c0.059,0.205,0.118,0.411,0.175,0.629c0.035,0.135,0.068,0.277,0.103,0.416c0.038,0.155,0.076,0.313,0.113,0.474
		c-0.432,0.107-0.867,0.196-1.304,0.271c-0.086,0.015-0.171,0.026-0.257,0.039c-0.381,0.06-0.765,0.106-1.148,0.142
		c-0.083,0.008-0.166,0.017-0.249,0.022c-0.918,0.07-1.841,0.07-2.759,0c-0.081-0.006-0.162-0.015-0.243-0.022
		c-0.387-0.034-0.773-0.082-1.158-0.142c-0.082-0.014-0.165-0.024-0.248-0.038c-0.438-0.075-0.875-0.164-1.309-0.271
		c0.039-0.166,0.077-0.329,0.117-0.488C-430.476,34.474-430.443,34.337-430.41,34.209z M-422.005,55.177
		c-0.056,0.231-0.114,0.452-0.173,0.672c-0.03,0.116-0.06,0.238-0.092,0.352c-0.091,0.327-0.185,0.643-0.28,0.944
		c-0.009,0.028-0.019,0.054-0.028,0.082c-0.088,0.272-0.177,0.535-0.269,0.786c-0.034,0.094-0.069,0.18-0.104,0.271
		c-0.067,0.178-0.135,0.354-0.203,0.521c-0.041,0.099-0.082,0.189-0.124,0.284c-0.063,0.146-0.127,0.293-0.192,0.431
		c-0.044,0.093-0.088,0.18-0.132,0.269c-0.063,0.127-0.126,0.252-0.188,0.369c-0.046,0.086-0.092,0.166-0.138,0.247
		c-0.062,0.109-0.123,0.216-0.186,0.316c-0.046,0.076-0.093,0.148-0.139,0.22c-0.062,0.094-0.123,0.185-0.184,0.271
		c-0.046,0.065-0.092,0.128-0.138,0.188c-0.061,0.08-0.121,0.156-0.181,0.229c-0.046,0.054-0.091,0.108-0.136,0.158
		c-0.06,0.066-0.118,0.127-0.177,0.186c-0.044,0.044-0.088,0.089-0.131,0.128c-0.059,0.054-0.116,0.1-0.173,0.146
		c-0.041,0.033-0.083,0.068-0.124,0.097c-0.058,0.042-0.114,0.074-0.171,0.107c-0.037,0.021-0.074,0.047-0.11,0.064
		c-0.062,0.03-0.121,0.051-0.18,0.071c-0.028,0.01-0.058,0.024-0.086,0.031c-0.085,0.023-0.167,0.035-0.245,0.035
		s-0.161-0.012-0.246-0.035c-0.028-0.007-0.058-0.021-0.086-0.031c-0.06-0.021-0.118-0.041-0.18-0.071
		c-0.036-0.018-0.073-0.043-0.11-0.064c-0.057-0.033-0.113-0.065-0.172-0.107c-0.04-0.028-0.082-0.064-0.124-0.098
		c-0.057-0.045-0.113-0.091-0.172-0.145c-0.044-0.039-0.088-0.085-0.133-0.129c-0.058-0.058-0.115-0.118-0.174-0.184
		c-0.046-0.051-0.093-0.106-0.139-0.162c-0.059-0.07-0.118-0.145-0.177-0.223c-0.048-0.063-0.096-0.127-0.143-0.194
		c-0.06-0.084-0.118-0.172-0.178-0.263c-0.048-0.074-0.097-0.149-0.146-0.229c-0.06-0.098-0.119-0.2-0.179-0.306
		c-0.048-0.084-0.096-0.168-0.143-0.257c-0.062-0.114-0.122-0.235-0.183-0.358c-0.046-0.092-0.093-0.183-0.138-0.279
		c-0.063-0.133-0.124-0.274-0.186-0.416c-0.044-0.1-0.087-0.195-0.13-0.299c-0.066-0.16-0.132-0.332-0.196-0.502
		c-0.037-0.097-0.074-0.188-0.11-0.287c-0.092-0.252-0.182-0.518-0.271-0.791c-0.009-0.026-0.018-0.049-0.025-0.075
		c-0.097-0.303-0.19-0.62-0.282-0.949c-0.026-0.097-0.051-0.2-0.077-0.299c-0.063-0.238-0.127-0.478-0.187-0.729
		c-0.031-0.13-0.061-0.268-0.091-0.4c-0.041-0.186-0.083-0.373-0.123-0.564c0.457-0.118,0.919-0.213,1.383-0.294
		c0.097-0.018,0.194-0.031,0.291-0.047c0.38-0.06,0.763-0.107,1.146-0.144c0.091-0.009,0.182-0.019,0.272-0.025
		c0.935-0.073,1.875-0.073,2.811,0c0.09,0.007,0.18,0.017,0.27,0.025c0.383,0.035,0.765,0.083,1.145,0.144
		c0.1,0.016,0.198,0.029,0.297,0.047c0.464,0.081,0.925,0.177,1.382,0.294c-0.036,0.174-0.074,0.344-0.112,0.512
		C-421.936,54.869-421.969,55.027-422.005,55.177z M-429.537,38.872c0.398,0.061,0.798,0.11,1.199,0.148
		c0.171,0.017,0.341,0.032,0.513,0.045c0.454,0.032,0.91,0.052,1.366,0.056c0.058,0.001,0.114,0.007,0.172,0.007
		c0.057,0,0.112-0.006,0.169-0.007c0.456-0.003,0.912-0.023,1.367-0.056c0.174-0.013,0.347-0.029,0.52-0.046
		c0.395-0.037,0.789-0.087,1.182-0.146c0.127-0.02,0.254-0.034,0.38-0.056c0.451-0.076,0.901-0.165,1.347-0.271
		c0.033,0.242,0.057,0.492,0.086,0.738c0.044,0.366,0.091,0.73,0.126,1.104c0.025,0.272,0.041,0.552,0.062,0.826
		c0.028,0.375,0.06,0.747,0.08,1.128c0.001,0.031,0.002,0.063,0.003,0.095h-10.64c0.002-0.034,0.002-0.07,0.004-0.104
		c0.019-0.358,0.049-0.709,0.075-1.063c0.021-0.294,0.038-0.592,0.065-0.882c0.034-0.359,0.079-0.71,0.12-1.063
		c0.031-0.26,0.057-0.523,0.091-0.78c0.447,0.106,0.898,0.195,1.352,0.271C-429.778,38.84-429.657,38.854-429.537,38.872z
		 M-422.76,50.428c-0.542-0.09-1.087-0.156-1.635-0.205c-0.056-0.005-0.111-0.011-0.167-0.015c-0.573-0.046-1.148-0.078-1.726-0.078
		c-0.578,0-1.153,0.032-1.727,0.078c-0.057,0.005-0.112,0.01-0.168,0.015c-0.547,0.049-1.09,0.115-1.63,0.205
		c-0.029,0.004-0.058,0.008-0.086,0.013c-0.485,0.083-0.969,0.177-1.448,0.293c-0.013-0.107-0.021-0.22-0.032-0.328
		c-0.065-0.588-0.122-1.182-0.165-1.784c-0.018-0.245-0.029-0.495-0.044-0.743c-0.028-0.503-0.05-1.01-0.063-1.521
		c-0.004-0.14-0.006-0.279-0.008-0.419h10.743c-0.002,0.14-0.004,0.278-0.008,0.417c-0.013,0.513-0.035,1.021-0.063,1.525
		c-0.014,0.244-0.025,0.489-0.043,0.731c-0.045,0.619-0.102,1.23-0.17,1.835c-0.011,0.095-0.017,0.192-0.028,0.286
		c-0.48-0.116-0.966-0.211-1.452-0.294C-422.706,50.436-422.733,50.433-422.76,50.428z M-435.168,45.938
		c0.002,0.134,0.015,0.263,0.018,0.396c0.018,0.765,0.051,1.521,0.101,2.268c0.011,0.152,0.016,0.308,0.027,0.46
		c0.066,0.874,0.157,1.731,0.267,2.577c0.009,0.072,0.013,0.148,0.022,0.221c-0.071,0.031-0.139,0.069-0.21,0.101
		c-0.392,0.173-0.778,0.356-1.159,0.553c-0.14,0.071-0.277,0.146-0.416,0.221c-0.36,0.195-0.715,0.401-1.063,0.616
		c-0.103,0.064-0.208,0.124-0.31,0.189c-0.439,0.281-0.868,0.578-1.285,0.891c-0.09,0.067-0.176,0.14-0.265,0.208
		c-0.33,0.255-0.653,0.52-0.968,0.794c-0.061,0.052-0.125,0.098-0.185,0.15c-2.142-2.788-3.413-6.128-3.667-9.644H-435.168z
		 M-438.199,58.147c0.05-0.044,0.099-0.089,0.149-0.133c0.184-0.158,0.372-0.312,0.562-0.462c0.117-0.093,0.232-0.188,0.352-0.277
		c0.206-0.155,0.418-0.304,0.631-0.45c0.108-0.075,0.214-0.153,0.324-0.226c0.289-0.19,0.584-0.371,0.883-0.545
		c0.037-0.021,0.072-0.045,0.109-0.066c0.338-0.192,0.682-0.372,1.031-0.542c0.017-0.009,0.035-0.016,0.053-0.024
		c0.019,0.084,0.041,0.158,0.06,0.241c0.104,0.453,0.214,0.894,0.33,1.321c0.03,0.111,0.059,0.228,0.09,0.338
		c0.146,0.519,0.302,1.016,0.466,1.492c0.039,0.113,0.081,0.218,0.121,0.328c0.131,0.366,0.268,0.719,0.409,1.059
		c0.056,0.132,0.111,0.263,0.168,0.392c0.157,0.355,0.32,0.695,0.489,1.02c0.025,0.05,0.049,0.107,0.074,0.155
		C-434.208,61.016-436.344,59.793-438.199,58.147z M-420.599,61.603c0.166-0.32,0.327-0.656,0.483-1.008
		c0.058-0.13,0.113-0.263,0.17-0.396c0.14-0.337,0.275-0.686,0.406-1.048c0.041-0.114,0.084-0.224,0.125-0.341
		c0.163-0.473,0.317-0.966,0.463-1.479c0.035-0.124,0.067-0.255,0.102-0.382c0.11-0.409,0.217-0.829,0.316-1.262
		c0.021-0.092,0.046-0.174,0.066-0.267c0.018,0.009,0.035,0.016,0.053,0.024c0.348,0.169,0.691,0.35,1.028,0.541
		c0.043,0.024,0.084,0.052,0.126,0.077c0.293,0.17,0.583,0.348,0.866,0.534c0.112,0.074,0.221,0.154,0.332,0.23
		c0.209,0.145,0.418,0.29,0.621,0.444c0.122,0.092,0.241,0.188,0.361,0.284c0.186,0.147,0.37,0.298,0.55,0.452
		c0.052,0.045,0.103,0.092,0.154,0.138c-1.856,1.646-3.993,2.868-6.304,3.621C-420.65,61.717-420.626,61.655-420.599,61.603z
		 M-411.98,55.582c-0.061-0.054-0.127-0.101-0.188-0.153c-0.313-0.272-0.633-0.534-0.96-0.787c-0.092-0.07-0.18-0.145-0.271-0.214
		c-0.416-0.312-0.844-0.607-1.282-0.889c-0.103-0.066-0.21-0.127-0.314-0.191c-0.347-0.215-0.698-0.419-1.057-0.613
		c-0.14-0.076-0.28-0.151-0.422-0.224c-0.376-0.193-0.757-0.375-1.143-0.545c-0.075-0.033-0.146-0.074-0.223-0.106
		c0.01-0.073,0.014-0.15,0.023-0.225c0.109-0.846,0.199-1.703,0.266-2.575c0.012-0.156,0.018-0.315,0.027-0.473
		c0.05-0.742,0.083-1.493,0.102-2.251c0.003-0.134,0.015-0.263,0.018-0.397h9.093C-408.565,49.452-409.838,52.791-411.98,55.582z
		 M-417.459,42.438c-0.004-0.084-0.014-0.164-0.018-0.247c-0.037-0.719-0.087-1.43-0.153-2.13c-0.006-0.062-0.009-0.126-0.015-0.188
		c-0.073-0.759-0.168-1.502-0.275-2.235c-0.009-0.064-0.014-0.132-0.023-0.196c0.077-0.032,0.149-0.073,0.227-0.107
		c0.392-0.17,0.778-0.353,1.16-0.546c0.144-0.073,0.286-0.148,0.429-0.225c0.368-0.198,0.729-0.406,1.085-0.625
		c0.103-0.063,0.207-0.122,0.31-0.187c0.444-0.284,0.879-0.584,1.302-0.899c0.099-0.073,0.193-0.152,0.291-0.229
		c0.328-0.253,0.649-0.516,0.962-0.787c0.064-0.056,0.135-0.105,0.198-0.162c1.963,2.557,3.195,5.573,3.584,8.763H-417.459z
		 M-414.375,31.11c-0.055,0.048-0.109,0.098-0.164,0.146c-0.189,0.162-0.383,0.319-0.578,0.475c-0.119,0.094-0.236,0.189-0.357,0.28
		c-0.224,0.168-0.453,0.327-0.685,0.485c-0.1,0.067-0.196,0.139-0.297,0.204c-0.334,0.219-0.675,0.427-1.022,0.622
		c-0.049,0.028-0.101,0.052-0.149,0.079c-0.3,0.165-0.604,0.322-0.913,0.47c-0.029,0.014-0.059,0.026-0.088,0.04
		c-0.018-0.073-0.039-0.136-0.057-0.208c-0.146-0.591-0.3-1.165-0.466-1.706c-0.012-0.038-0.025-0.072-0.037-0.11
		c-0.159-0.51-0.329-0.99-0.505-1.455c-0.046-0.121-0.092-0.242-0.139-0.359c-0.189-0.475-0.386-0.929-0.593-1.352
		c-0.029-0.059-0.06-0.111-0.089-0.169c-0.188-0.374-0.386-0.725-0.588-1.056c-0.031-0.052-0.06-0.114-0.092-0.165
		C-418.686,28.064-416.369,29.343-414.375,31.11z M-431.47,27.491c-0.205,0.335-0.403,0.689-0.595,1.068
		c-0.026,0.054-0.056,0.103-0.082,0.157c-0.209,0.426-0.406,0.883-0.598,1.36c-0.045,0.113-0.089,0.229-0.133,0.347
		c-0.181,0.474-0.354,0.965-0.517,1.486c-0.009,0.027-0.019,0.053-0.027,0.08c-0.168,0.547-0.323,1.127-0.472,1.724
		c-0.017,0.068-0.037,0.128-0.054,0.197c-0.029-0.014-0.059-0.026-0.088-0.04c-0.305-0.146-0.605-0.302-0.902-0.465
		c-0.053-0.029-0.108-0.055-0.161-0.085c-0.347-0.194-0.687-0.402-1.021-0.62c-0.102-0.066-0.198-0.138-0.298-0.206
		c-0.231-0.157-0.46-0.317-0.684-0.485c-0.121-0.09-0.237-0.185-0.355-0.278c-0.196-0.155-0.391-0.313-0.581-0.477
		c-0.055-0.047-0.108-0.097-0.163-0.145c1.994-1.768,4.312-3.047,6.819-3.78C-431.411,27.38-431.438,27.44-431.47,27.491z
		 M-440.594,33.676c0.063,0.056,0.131,0.104,0.194,0.158c0.313,0.273,0.636,0.536,0.964,0.79c0.099,0.076,0.194,0.156,0.294,0.23
		c0.422,0.314,0.854,0.613,1.298,0.896c0.105,0.067,0.215,0.128,0.321,0.193c0.351,0.216,0.707,0.422,1.07,0.617
		c0.146,0.078,0.291,0.155,0.438,0.229c0.378,0.192,0.76,0.372,1.148,0.541c0.079,0.035,0.154,0.077,0.234,0.11
		c-0.012,0.075-0.018,0.153-0.028,0.229c-0.095,0.655-0.177,1.321-0.245,1.997c-0.009,0.089-0.021,0.174-0.03,0.263
		c-0.073,0.768-0.127,1.548-0.167,2.337c-0.003,0.058-0.01,0.113-0.013,0.171h-9.061C-443.787,39.247-442.556,36.23-440.594,33.676z
		"/>
	<path d="M-408.952,71.938h-34.667c-0.967,0-1.75,0.784-1.75,1.75c0,0.967,0.783,1.75,1.75,1.75h34.667
		c0.967,0,1.75-0.783,1.75-1.75C-407.202,72.723-407.985,71.938-408.952,71.938z"/>
	<path d="M-416.831,80.54h-18.91c-0.966,0-1.75,0.784-1.75,1.75c0,0.967,0.784,1.75,1.75,1.75h18.91c0.967,0,1.75-0.783,1.75-1.75
		C-415.081,81.324-415.864,80.54-416.831,80.54z"/>
	<path d="M-463.005,12.567c-0.967,0-1.75,0.784-1.75,1.75v76.077c0,0.966,0.783,1.75,1.75,1.75c0.966,0,1.75-0.784,1.75-1.75V14.317
		C-461.255,13.352-462.039,12.567-463.005,12.567z"/>
</g>
<path d="M-270.243,51.356c0-10.206-3.846-19.933-10.83-27.389c-0.002-0.001-0.002-0.003-0.004-0.004
	c-7.555-8.065-18.217-12.69-29.25-12.69s-21.694,4.625-29.248,12.69l0,0c-6.986,7.457-10.835,17.186-10.835,27.393
	c0,10.208,3.849,19.937,10.835,27.393c0,0.001,0,0.001,0,0.001c7.553,8.064,18.215,12.69,29.249,12.69c0.001,0,0.002,0,0.003,0
	c0,0,0,0,0.001,0c11.032-0.001,21.69-4.626,29.245-12.69c0.002-0.001,0.002-0.003,0.004-0.004
	C-274.089,71.29-270.243,61.563-270.243,51.356z M-282.416,74.994c-0.071-0.069-0.147-0.134-0.22-0.203
	c-0.174-0.166-0.354-0.326-0.531-0.489c-0.375-0.346-0.756-0.687-1.145-1.018c-0.205-0.176-0.412-0.348-0.621-0.519
	c-0.385-0.315-0.774-0.621-1.17-0.922c-0.206-0.156-0.41-0.314-0.619-0.467c-0.459-0.335-0.928-0.657-1.4-0.973
	c-0.148-0.099-0.293-0.203-0.441-0.3c-0.625-0.405-1.262-0.793-1.907-1.162c-0.149-0.085-0.302-0.162-0.451-0.245
	c-0.502-0.278-1.009-0.549-1.522-0.807c-0.229-0.115-0.463-0.224-0.695-0.334c-0.447-0.213-0.896-0.419-1.352-0.615
	c-0.249-0.106-0.498-0.212-0.749-0.314c-0.173-0.07-0.342-0.148-0.516-0.217c0.067-0.453,0.116-0.919,0.178-1.377
	c0.065-0.492,0.134-0.982,0.19-1.48c0.09-0.766,0.162-1.542,0.232-2.319c0.043-0.467,0.092-0.93,0.127-1.401
	c0.069-0.901,0.117-1.814,0.162-2.729c0.017-0.356,0.043-0.708,0.057-1.066c0.048-1.25,0.074-2.511,0.076-3.781h20.979
	C-273.958,60.635-277.003,68.614-282.416,74.994z M-299.981,70.153c-0.076,0.366-0.152,0.73-0.234,1.089
	c-0.074,0.334-0.153,0.662-0.232,0.988c-0.084,0.349-0.17,0.694-0.26,1.034c-0.082,0.318-0.168,0.632-0.254,0.942
	c-0.093,0.331-0.187,0.658-0.283,0.979c-0.09,0.302-0.182,0.599-0.274,0.891c-0.101,0.313-0.202,0.622-0.305,0.925
	c-0.097,0.282-0.193,0.561-0.292,0.834c-0.107,0.295-0.216,0.582-0.326,0.866c-0.102,0.263-0.203,0.522-0.309,0.775
	c-0.113,0.274-0.229,0.54-0.344,0.803c-0.106,0.241-0.213,0.481-0.322,0.713c-0.119,0.254-0.24,0.497-0.362,0.738
	c-0.11,0.219-0.222,0.438-0.334,0.647c-0.125,0.231-0.252,0.45-0.38,0.669c-0.113,0.195-0.227,0.393-0.342,0.577
	c-0.131,0.21-0.264,0.404-0.396,0.6c-0.115,0.17-0.23,0.344-0.348,0.503c-0.137,0.186-0.275,0.354-0.413,0.525
	c-0.116,0.144-0.233,0.294-0.351,0.427c-0.143,0.161-0.286,0.302-0.43,0.445c-0.117,0.118-0.232,0.243-0.35,0.35
	c-0.148,0.134-0.299,0.246-0.449,0.362c-0.113,0.09-0.228,0.188-0.343,0.267c-0.159,0.108-0.317,0.191-0.478,0.278
	c-0.107,0.06-0.215,0.131-0.322,0.181c-0.178,0.082-0.357,0.135-0.536,0.189c-0.089,0.028-0.179,0.071-0.269,0.092
	c-0.27,0.063-0.539,0.097-0.807,0.097l0,0c-0.001,0-0.001,0-0.001,0c-0.269,0-0.538-0.034-0.808-0.097
	c-0.089-0.021-0.178-0.063-0.268-0.091c-0.18-0.056-0.358-0.108-0.537-0.19c-0.107-0.049-0.213-0.12-0.318-0.178
	c-0.162-0.089-0.322-0.172-0.482-0.281c-0.112-0.076-0.223-0.174-0.335-0.26c-0.153-0.119-0.306-0.233-0.457-0.371
	c-0.114-0.104-0.228-0.225-0.341-0.339c-0.146-0.147-0.294-0.292-0.439-0.456c-0.115-0.13-0.228-0.275-0.341-0.415
	c-0.142-0.175-0.284-0.348-0.423-0.538c-0.114-0.154-0.227-0.323-0.338-0.487c-0.137-0.201-0.273-0.401-0.408-0.617
	c-0.111-0.179-0.221-0.369-0.331-0.558c-0.132-0.226-0.263-0.452-0.392-0.691c-0.108-0.201-0.215-0.413-0.322-0.624
	c-0.125-0.249-0.251-0.5-0.374-0.763c-0.104-0.223-0.208-0.455-0.312-0.688c-0.119-0.271-0.238-0.547-0.355-0.831
	c-0.102-0.244-0.199-0.496-0.299-0.749c-0.112-0.292-0.225-0.588-0.334-0.891c-0.096-0.266-0.191-0.537-0.285-0.812
	c-0.105-0.312-0.21-0.628-0.313-0.95c-0.09-0.284-0.18-0.572-0.268-0.864c-0.098-0.33-0.194-0.665-0.289-1.005
	c-0.084-0.304-0.168-0.61-0.25-0.922c-0.09-0.347-0.178-0.699-0.264-1.054c-0.077-0.32-0.154-0.643-0.229-0.97
	c-0.082-0.363-0.16-0.732-0.237-1.104c-0.07-0.338-0.141-0.676-0.207-1.021c-0.024-0.125-0.046-0.254-0.069-0.38
	c0.008-0.003,0.016-0.006,0.023-0.008c0.75-0.228,1.509-0.421,2.27-0.599c0.169-0.039,0.336-0.081,0.506-0.117
	c0.717-0.157,1.438-0.288,2.162-0.401c0.203-0.031,0.406-0.062,0.609-0.089c0.72-0.101,1.441-0.182,2.166-0.239
	c0.188-0.015,0.375-0.022,0.563-0.035c0.699-0.044,1.398-0.071,2.098-0.076c0.152-0.001,0.304-0.001,0.456,0
	c0.701,0.004,1.401,0.032,2.102,0.077c0.186,0.012,0.372,0.02,0.557,0.034c0.726,0.058,1.45,0.14,2.171,0.239
	c0.201,0.028,0.402,0.057,0.603,0.088c0.727,0.113,1.45,0.246,2.17,0.402c0.165,0.036,0.329,0.077,0.493,0.116
	c0.766,0.178,1.525,0.372,2.278,0.6c0.007,0.003,0.015,0.005,0.021,0.008c-0.023,0.125-0.045,0.254-0.069,0.379
	C-299.839,69.472-299.909,69.813-299.981,70.153z M-320.402,32.805c0.081-0.355,0.161-0.709,0.245-1.055
	c0.076-0.307,0.154-0.605,0.232-0.904c0.087-0.335,0.175-0.669,0.266-0.995c0.082-0.292,0.166-0.577,0.251-0.861
	c0.095-0.317,0.189-0.631,0.288-0.938c0.087-0.276,0.177-0.547,0.268-0.814c0.1-0.297,0.201-0.59,0.305-0.877
	c0.094-0.26,0.189-0.515,0.285-0.767c0.106-0.277,0.214-0.549,0.322-0.815c0.1-0.241,0.199-0.479,0.3-0.712
	c0.111-0.257,0.226-0.507,0.339-0.753c0.104-0.222,0.207-0.441,0.311-0.653c0.117-0.237,0.236-0.466,0.356-0.691
	c0.106-0.201,0.213-0.4,0.321-0.592c0.121-0.216,0.246-0.421,0.37-0.624c0.108-0.179,0.218-0.358,0.329-0.528
	c0.127-0.193,0.256-0.374,0.385-0.555c0.111-0.156,0.222-0.315,0.334-0.461c0.133-0.172,0.266-0.327,0.399-0.484
	c0.112-0.133,0.224-0.269,0.337-0.391c0.138-0.148,0.277-0.278,0.416-0.411c0.111-0.107,0.223-0.221,0.334-0.317
	c0.145-0.124,0.289-0.228,0.435-0.335c0.108-0.081,0.218-0.171,0.327-0.242c0.152-0.099,0.307-0.174,0.459-0.254
	c0.104-0.055,0.207-0.12,0.311-0.165c0.172-0.074,0.343-0.122,0.514-0.173c0.088-0.025,0.174-0.064,0.262-0.084
	c0.258-0.057,0.518-0.088,0.776-0.088s0.519,0.031,0.776,0.088c0.087,0.02,0.173,0.059,0.26,0.084
	c0.172,0.05,0.344,0.098,0.516,0.173c0.102,0.045,0.204,0.109,0.307,0.162c0.154,0.081,0.309,0.157,0.463,0.258
	c0.108,0.07,0.215,0.158,0.323,0.238c0.146,0.108,0.294,0.213,0.438,0.339c0.111,0.095,0.221,0.207,0.33,0.313
	c0.141,0.134,0.281,0.266,0.42,0.416c0.112,0.12,0.223,0.255,0.333,0.385c0.136,0.159,0.271,0.317,0.403,0.491
	c0.111,0.144,0.221,0.301,0.331,0.454c0.13,0.183,0.261,0.366,0.389,0.562c0.109,0.167,0.218,0.345,0.325,0.521
	c0.126,0.206,0.252,0.413,0.375,0.632c0.106,0.188,0.211,0.386,0.316,0.584c0.121,0.228,0.241,0.459,0.359,0.699
	c0.104,0.21,0.206,0.427,0.308,0.646c0.116,0.248,0.229,0.501,0.343,0.762c0.1,0.229,0.199,0.465,0.297,0.704
	c0.109,0.27,0.219,0.544,0.326,0.824c0.094,0.248,0.188,0.5,0.281,0.757c0.104,0.29,0.207,0.586,0.309,0.886
	c0.09,0.267,0.178,0.535,0.266,0.81c0.098,0.308,0.193,0.623,0.288,0.94c0.085,0.283,0.168,0.567,0.249,0.858
	c0.092,0.328,0.182,0.664,0.27,1.002c0.076,0.296,0.154,0.593,0.229,0.896c0.086,0.348,0.166,0.704,0.248,1.061
	c0.07,0.31,0.141,0.618,0.208,0.935c0.021,0.102,0.04,0.207,0.062,0.309c-0.016,0.004-0.031,0.008-0.047,0.013
	c-0.726,0.213-1.46,0.396-2.197,0.563c-0.154,0.034-0.309,0.072-0.463,0.105c-0.703,0.149-1.41,0.274-2.119,0.383
	c-0.197,0.029-0.395,0.058-0.593,0.085c-0.702,0.095-1.405,0.172-2.11,0.227c-0.186,0.014-0.371,0.022-0.557,0.033
	c-0.678,0.042-1.357,0.068-2.037,0.073c-0.148,0.001-0.298,0.001-0.447,0c-0.68-0.005-1.359-0.031-2.039-0.073
	c-0.185-0.011-0.369-0.02-0.553-0.033c-0.707-0.055-1.41-0.132-2.112-0.227c-0.198-0.026-0.396-0.055-0.593-0.085
	c-0.709-0.107-1.416-0.232-2.118-0.383c-0.155-0.032-0.31-0.07-0.465-0.105c-0.739-0.168-1.474-0.351-2.202-0.564
	c-0.014-0.005-0.027-0.008-0.041-0.012c0.021-0.102,0.039-0.207,0.061-0.309C-320.544,33.425-320.474,33.115-320.402,32.805z
	 M-301.511,64.66c-0.187-0.043-0.373-0.088-0.56-0.128c-0.691-0.145-1.388-0.266-2.085-0.373c-0.308-0.048-0.615-0.095-0.925-0.136
	c-0.669-0.088-1.339-0.16-2.011-0.215c-0.344-0.027-0.689-0.045-1.033-0.064c-0.5-0.026-1-0.044-1.5-0.053
	c-0.234-0.004-0.468-0.024-0.703-0.024c-0.234,0-0.469,0.021-0.703,0.024c-0.5,0.009-0.998,0.026-1.498,0.053
	c-0.344,0.02-0.688,0.037-1.031,0.064c-0.674,0.055-1.345,0.127-2.014,0.215c-0.309,0.041-0.616,0.087-0.924,0.136
	c-0.701,0.108-1.402,0.229-2.099,0.375c-0.181,0.039-0.36,0.084-0.542,0.124c-0.695,0.156-1.387,0.332-2.074,0.526
	c-0.098,0.027-0.197,0.046-0.295,0.074c-0.045-0.316-0.096-0.628-0.137-0.947c-0.058-0.447-0.113-0.896-0.164-1.349
	c-0.084-0.735-0.156-1.478-0.223-2.225c-0.039-0.438-0.08-0.873-0.113-1.313c-0.063-0.84-0.109-1.689-0.149-2.542
	c-0.017-0.353-0.042-0.701-0.054-1.056c-0.044-1.181-0.067-2.372-0.069-3.572h24.181c-0.002,1.2-0.025,2.392-0.069,3.572
	c-0.013,0.353-0.037,0.699-0.054,1.05c-0.041,0.854-0.088,1.704-0.15,2.545c-0.033,0.442-0.074,0.879-0.113,1.317
	c-0.066,0.745-0.139,1.486-0.222,2.22c-0.052,0.454-0.107,0.905-0.166,1.354c-0.041,0.318-0.091,0.63-0.136,0.945
	c-0.1-0.028-0.201-0.048-0.3-0.076C-300.13,64.99-300.817,64.815-301.511,64.66z M-318.657,38.168
	c0.021,0.005,0.042,0.011,0.063,0.015c0.858,0.182,1.724,0.328,2.593,0.452c0.076,0.012,0.152,0.023,0.228,0.033
	c0.873,0.12,1.751,0.211,2.632,0.273c0.033,0.002,0.066,0.004,0.099,0.006c0.903,0.062,1.808,0.1,2.716,0.1s1.813-0.038,2.715-0.1
	c0.035-0.002,0.07-0.004,0.105-0.007c0.879-0.062,1.753-0.152,2.623-0.271c0.08-0.011,0.16-0.023,0.24-0.035
	c0.865-0.124,1.727-0.27,2.582-0.45c0.025-0.005,0.05-0.012,0.074-0.018c0.805-0.171,1.604-0.372,2.396-0.593
	c0.076-0.021,0.154-0.035,0.23-0.058c0.057,0.354,0.119,0.701,0.17,1.059c0.049,0.329,0.098,0.658,0.141,0.99
	c0.13,0.968,0.245,1.946,0.344,2.938c0.014,0.134,0.031,0.266,0.043,0.4c0.107,1.127,0.189,2.271,0.256,3.427
	c0.019,0.313,0.031,0.632,0.046,0.948c0.023,0.488,0.035,0.983,0.052,1.477h-24.033c0.016-0.495,0.027-0.993,0.051-1.484
	c0.016-0.315,0.027-0.634,0.046-0.947c0.066-1.152,0.149-2.295,0.255-3.419c0.015-0.148,0.034-0.293,0.049-0.441
	c0.098-0.979,0.211-1.944,0.338-2.899c0.045-0.332,0.094-0.662,0.141-0.991c0.053-0.356,0.115-0.703,0.172-1.057
	c0.076,0.022,0.156,0.037,0.232,0.059C-320.263,37.795-319.464,37.997-318.657,38.168z M-294.789,48.755
	c-0.019-0.573-0.054-1.136-0.081-1.703c-0.018-0.369-0.031-0.741-0.053-1.108c-0.071-1.194-0.158-2.379-0.271-3.546
	c-0.01-0.11-0.025-0.218-0.037-0.327c-0.105-1.06-0.23-2.105-0.37-3.14c-0.05-0.37-0.108-0.733-0.163-1.101
	c-0.07-0.48-0.135-0.968-0.213-1.441c0.174-0.067,0.344-0.145,0.518-0.214c0.254-0.103,0.506-0.207,0.758-0.314
	c0.463-0.196,0.922-0.402,1.377-0.616c0.236-0.111,0.473-0.221,0.707-0.336c0.518-0.256,1.026-0.525,1.531-0.803
	c0.158-0.087,0.319-0.167,0.477-0.256c0.656-0.372,1.304-0.763,1.939-1.172c0.143-0.092,0.281-0.191,0.424-0.285
	c0.488-0.324,0.973-0.655,1.447-1c0.211-0.152,0.416-0.311,0.623-0.468c0.403-0.305,0.801-0.615,1.192-0.935
	c0.212-0.173,0.423-0.349,0.632-0.526c0.391-0.332,0.773-0.674,1.151-1.021c0.185-0.169,0.371-0.336,0.552-0.509
	c0.076-0.072,0.158-0.141,0.233-0.215c5.045,5.946,8.033,13.282,8.581,21.036H-294.789z M-284.813,25.149
	c-0.078,0.077-0.152,0.157-0.232,0.233c-0.162,0.155-0.33,0.307-0.494,0.459c-0.348,0.319-0.699,0.632-1.057,0.938
	c-0.178,0.151-0.356,0.303-0.537,0.451c-0.392,0.321-0.791,0.633-1.195,0.938c-0.143,0.107-0.283,0.22-0.428,0.325
	c-0.549,0.401-1.108,0.789-1.678,1.159c-0.115,0.074-0.232,0.142-0.348,0.215c-0.462,0.292-0.93,0.576-1.402,0.848
	c-0.197,0.112-0.396,0.22-0.594,0.328c-0.412,0.227-0.83,0.445-1.251,0.655c-0.204,0.103-0.409,0.205-0.616,0.304
	c-0.473,0.226-0.952,0.438-1.436,0.644c-0.146,0.063-0.291,0.13-0.438,0.189c-0.041,0.017-0.082,0.03-0.123,0.046
	c-0.021-0.104-0.046-0.202-0.068-0.305c-0.034-0.159-0.07-0.314-0.105-0.471c-0.147-0.657-0.301-1.302-0.461-1.93
	c-0.021-0.081-0.04-0.165-0.061-0.245c-0.177-0.678-0.361-1.334-0.553-1.977c-0.045-0.151-0.09-0.301-0.136-0.45
	c-0.194-0.636-0.394-1.259-0.603-1.856c-0.02-0.056-0.04-0.108-0.06-0.163c-0.196-0.559-0.4-1.097-0.608-1.621
	c-0.049-0.124-0.098-0.249-0.148-0.37c-0.223-0.544-0.45-1.071-0.686-1.577c-0.045-0.098-0.092-0.191-0.138-0.288
	c-0.214-0.451-0.435-0.888-0.658-1.307c-0.042-0.079-0.083-0.161-0.126-0.239c-0.251-0.458-0.508-0.894-0.77-1.311
	c-0.061-0.096-0.121-0.188-0.182-0.281c-0.263-0.406-0.529-0.799-0.803-1.164c-0.01-0.012-0.018-0.025-0.027-0.037
	c-0.279-0.372-0.567-0.715-0.857-1.044c-0.066-0.074-0.133-0.148-0.199-0.221c-0.269-0.293-0.541-0.573-0.818-0.828
	C-297.211,16.338-290.326,19.767-284.813,25.149z M-316.761,16.021c-0.068,0.074-0.137,0.15-0.203,0.228
	c-0.29,0.327-0.576,0.668-0.855,1.039c-0.011,0.015-0.021,0.031-0.033,0.046c-0.27,0.361-0.534,0.75-0.795,1.152
	c-0.063,0.096-0.125,0.19-0.186,0.289c-0.261,0.415-0.517,0.848-0.766,1.304c-0.045,0.081-0.088,0.166-0.131,0.249
	c-0.223,0.416-0.441,0.849-0.654,1.297c-0.047,0.098-0.094,0.193-0.141,0.293c-0.234,0.505-0.461,1.03-0.684,1.572
	c-0.051,0.124-0.1,0.251-0.15,0.377c-0.207,0.521-0.409,1.056-0.605,1.61c-0.02,0.059-0.041,0.113-0.062,0.172
	c-0.208,0.597-0.407,1.219-0.602,1.853c-0.046,0.15-0.091,0.301-0.137,0.453c-0.19,0.642-0.376,1.297-0.552,1.974
	c-0.021,0.083-0.041,0.169-0.063,0.252c-0.16,0.626-0.313,1.27-0.459,1.925c-0.035,0.156-0.072,0.312-0.106,0.471
	c-0.022,0.103-0.046,0.201-0.068,0.305c-0.04-0.016-0.081-0.029-0.122-0.046c-0.147-0.06-0.292-0.127-0.438-0.189
	c-0.483-0.205-0.962-0.418-1.435-0.644c-0.207-0.099-0.412-0.201-0.617-0.304c-0.421-0.21-0.838-0.429-1.25-0.655
	c-0.199-0.108-0.397-0.216-0.594-0.328c-0.473-0.271-0.939-0.555-1.401-0.848c-0.116-0.073-0.233-0.141-0.349-0.216
	c-0.57-0.369-1.129-0.757-1.678-1.157c-0.145-0.106-0.285-0.22-0.43-0.328c-0.403-0.304-0.801-0.614-1.191-0.935
	c-0.183-0.149-0.361-0.302-0.541-0.454c-0.355-0.304-0.705-0.614-1.049-0.931c-0.168-0.155-0.338-0.309-0.503-0.467
	c-0.078-0.074-0.151-0.154-0.229-0.23c5.512-5.383,12.397-8.812,19.895-9.953C-316.222,15.45-316.493,15.73-316.761,16.021z
	 M-338.235,27.719c0.074,0.073,0.154,0.14,0.229,0.212c0.185,0.176,0.374,0.345,0.562,0.518c0.376,0.345,0.755,0.684,1.144,1.014
	c0.209,0.179,0.422,0.355,0.635,0.529c0.391,0.319,0.787,0.628,1.188,0.932c0.208,0.158,0.415,0.317,0.627,0.471
	c0.474,0.344,0.956,0.675,1.444,0.997c0.143,0.095,0.281,0.194,0.426,0.287c0.635,0.409,1.281,0.799,1.938,1.171
	c0.16,0.091,0.324,0.173,0.484,0.261c0.502,0.275,1.008,0.543,1.521,0.797c0.236,0.117,0.477,0.228,0.717,0.34
	c0.451,0.212,0.905,0.417,1.364,0.612c0.257,0.108,0.513,0.215,0.771,0.318c0.171,0.068,0.338,0.146,0.51,0.211
	c-0.084,0.506-0.151,1.024-0.228,1.537c-0.051,0.342-0.105,0.681-0.152,1.025c-0.156,1.155-0.296,2.323-0.41,3.511
	c-0.004,0.05-0.007,0.102-0.012,0.151c-0.107,1.138-0.191,2.292-0.259,3.457c-0.022,0.378-0.036,0.761-0.054,1.142
	c-0.025,0.515-0.058,1.024-0.074,1.544h-20.954C-346.271,41.001-343.281,33.665-338.235,27.719z M-325.919,52.255
	c0.002,1.273,0.029,2.537,0.076,3.79c0.013,0.34,0.039,0.673,0.055,1.012c0.045,0.933,0.094,1.863,0.164,2.782
	c0.035,0.466,0.084,0.923,0.125,1.385c0.07,0.782,0.145,1.562,0.233,2.331c0.058,0.5,0.126,0.991,0.191,1.485
	c0.061,0.456,0.11,0.92,0.177,1.37c-0.174,0.068-0.342,0.146-0.514,0.217c-0.252,0.103-0.503,0.208-0.753,0.315
	c-0.453,0.196-0.901,0.401-1.347,0.613c-0.234,0.111-0.469,0.221-0.701,0.336c-0.51,0.255-1.012,0.524-1.51,0.801
	c-0.154,0.085-0.311,0.164-0.463,0.251c-0.645,0.369-1.279,0.756-1.902,1.16c-0.152,0.099-0.301,0.205-0.451,0.307
	c-0.47,0.313-0.934,0.633-1.391,0.966c-0.211,0.153-0.418,0.313-0.626,0.472c-0.393,0.298-0.78,0.603-1.162,0.915
	c-0.212,0.173-0.421,0.348-0.628,0.524c-0.383,0.327-0.758,0.663-1.129,1.004c-0.184,0.169-0.369,0.334-0.549,0.507
	c-0.07,0.066-0.145,0.129-0.213,0.196c-5.414-6.38-8.461-14.359-8.664-22.739H-325.919z M-335.839,77.563
	c0.074-0.073,0.146-0.15,0.221-0.223c0.155-0.148,0.314-0.292,0.472-0.438c0.346-0.319,0.696-0.633,1.054-0.938
	c0.172-0.146,0.344-0.294,0.52-0.438c0.389-0.32,0.786-0.632,1.188-0.936c0.137-0.104,0.271-0.211,0.408-0.313
	c0.538-0.396,1.086-0.776,1.644-1.142c0.126-0.082,0.255-0.158,0.381-0.238c0.44-0.281,0.886-0.554,1.337-0.815
	c0.197-0.113,0.395-0.223,0.593-0.333c0.404-0.225,0.813-0.44,1.226-0.649c0.199-0.101,0.397-0.202,0.598-0.3
	c0.49-0.236,0.986-0.461,1.486-0.676c0.116-0.05,0.23-0.105,0.348-0.153c0.023-0.011,0.049-0.019,0.072-0.028
	c0.018,0.092,0.039,0.176,0.058,0.268c0.114,0.576,0.238,1.132,0.362,1.688c0.072,0.324,0.14,0.658,0.215,0.976
	c0.164,0.688,0.339,1.35,0.518,2.004c0.046,0.168,0.087,0.346,0.133,0.512c0.229,0.81,0.471,1.592,0.722,2.349
	c0.073,0.223,0.155,0.429,0.23,0.647c0.183,0.523,0.364,1.043,0.558,1.538c0.105,0.271,0.217,0.524,0.326,0.787
	c0.172,0.417,0.344,0.833,0.523,1.228c0.123,0.27,0.25,0.523,0.376,0.782c0.175,0.36,0.351,0.718,0.532,1.058
	c0.135,0.253,0.273,0.493,0.412,0.734c0.182,0.316,0.364,0.626,0.551,0.923c0.146,0.229,0.293,0.45,0.441,0.668
	c0.189,0.277,0.381,0.544,0.574,0.801c0.082,0.107,0.158,0.231,0.241,0.336C-324.407,85.883-330.716,82.567-335.839,77.563z
	 M-302.896,86.913c0.197-0.261,0.391-0.531,0.583-0.813c0.146-0.215,0.292-0.433,0.435-0.659c0.189-0.298,0.373-0.61,0.556-0.929
	c0.138-0.24,0.275-0.479,0.41-0.731c0.182-0.34,0.356-0.697,0.532-1.058c0.127-0.259,0.254-0.513,0.377-0.782
	c0.178-0.393,0.35-0.807,0.521-1.221c0.11-0.266,0.223-0.521,0.329-0.797c0.189-0.487,0.369-1,0.549-1.515
	c0.079-0.226,0.162-0.439,0.239-0.671c0.251-0.755,0.491-1.535,0.72-2.344c0.049-0.175,0.093-0.363,0.141-0.54
	c0.176-0.646,0.348-1.297,0.51-1.974c0.076-0.324,0.146-0.664,0.219-0.994c0.123-0.552,0.246-1.103,0.359-1.673
	c0.018-0.092,0.039-0.177,0.057-0.269c0.024,0.01,0.049,0.018,0.073,0.027c0.118,0.05,0.233,0.105,0.351,0.155
	c0.498,0.214,0.993,0.438,1.482,0.675c0.201,0.098,0.4,0.199,0.602,0.301c0.41,0.208,0.818,0.424,1.221,0.647
	c0.199,0.11,0.398,0.221,0.596,0.335c0.449,0.26,0.893,0.531,1.332,0.812c0.127,0.081,0.259,0.158,0.387,0.241
	c0.557,0.365,1.104,0.745,1.641,1.14c0.141,0.104,0.277,0.215,0.418,0.321c0.397,0.301,0.79,0.608,1.176,0.925
	c0.178,0.147,0.354,0.298,0.53,0.448c0.351,0.3,0.696,0.607,1.035,0.921c0.164,0.151,0.329,0.301,0.491,0.455
	c0.072,0.07,0.141,0.145,0.214,0.216c-5.124,5.004-11.435,8.319-18.319,9.679C-303.052,87.14-302.976,87.019-302.896,86.913z"/>
<g>
	<path d="M-207.131,55.435c0.091,0.091,0.194,0.185,0.308,0.278c4.301,4.151,9.939,6.447,15.941,6.447c0.001,0,0.001,0,0.001,0
		c0.231,0,0.462-0.005,0.693-0.012h0.001c0.019,0,0.037,0,0.057-0.001c5.854-0.192,11.357-2.576,15.494-6.713
		c4.139-4.139,6.523-9.642,6.715-15.497l0,0l0,0c0.205-6.333-2.241-12.529-6.713-17c-4.514-4.514-10.601-6.925-17-6.714l0,0l0,0
		c-5.857,0.191-11.361,2.576-15.497,6.713c-4.138,4.138-6.522,9.641-6.713,15.497c0,0,0,0,0,0.001
		c-0.207,6.328,2.238,12.523,6.709,16.995C-207.134,55.432-207.132,55.434-207.131,55.435z M-208.091,48.184
		c-0.009,0.031-0.023,0.065-0.032,0.097c-1.302-2.457-2.055-5.175-2.205-8.011c0.104,0.006,0.206,0.011,0.31,0.019
		c0.241,0.017,0.482,0.04,0.723,0.066c0.199,0.021,0.397,0.043,0.595,0.07c0.245,0.034,0.488,0.077,0.731,0.12
		c0.184,0.033,0.367,0.062,0.549,0.099c0.407,0.085,0.812,0.181,1.211,0.29c0.123,0.034,0.243,0.076,0.365,0.112
		c0.299,0.088,0.597,0.18,0.891,0.282c0.045,0.016,0.09,0.034,0.135,0.05c-0.052,0.08-0.093,0.157-0.143,0.236
		c-0.297,0.47-0.578,0.934-0.839,1.39c-0.056,0.098-0.116,0.196-0.171,0.293c-0.297,0.53-0.565,1.05-0.813,1.56
		c-0.061,0.124-0.114,0.245-0.171,0.368c-0.194,0.418-0.372,0.828-0.533,1.231c-0.044,0.109-0.092,0.222-0.133,0.33
		C-207.803,47.265-207.959,47.73-208.091,48.184z M-199.548,40.007c0.494-0.63,1.016-1.254,1.553-1.874
		c0.161-0.187,0.329-0.37,0.494-0.555c0.396-0.446,0.804-0.889,1.223-1.327c0.105-0.111,0.213-0.222,0.319-0.333l8.344,8.344
		c-0.112,0.109-0.226,0.218-0.339,0.326c-0.434,0.413-0.871,0.814-1.311,1.207c-0.19,0.17-0.381,0.343-0.572,0.509
		c-0.617,0.533-1.237,1.053-1.863,1.542c-0.004,0.003-0.008,0.006-0.011,0.009c-0.276-0.46-0.573-0.906-0.88-1.345
		c-0.084-0.119-0.173-0.234-0.259-0.353c-0.263-0.359-0.536-0.711-0.819-1.056c-0.104-0.126-0.206-0.252-0.313-0.376
		c-0.375-0.436-0.762-0.863-1.17-1.272c-0.408-0.408-0.836-0.794-1.271-1.169c-0.125-0.107-0.252-0.21-0.377-0.314
		c-0.344-0.282-0.695-0.555-1.054-0.816c-0.118-0.087-0.234-0.176-0.354-0.26c-0.438-0.308-0.885-0.604-1.344-0.881
		C-199.55,40.011-199.55,40.009-199.548,40.007z M-192.19,32.381c0.172-0.146,0.342-0.3,0.515-0.443
		c0.554-0.458,1.108-0.899,1.666-1.321c0.004-0.003,0.007-0.005,0.011-0.008c0.273,0.449,0.566,0.886,0.869,1.315
		c0.084,0.119,0.174,0.234,0.26,0.352c0.256,0.349,0.521,0.689,0.797,1.022c0.104,0.126,0.207,0.252,0.313,0.376
		c0.368,0.426,0.746,0.844,1.146,1.244c0.4,0.4,0.819,0.779,1.246,1.147c0.121,0.104,0.245,0.205,0.368,0.307
		c0.338,0.279,0.684,0.549,1.037,0.809c0.113,0.083,0.224,0.169,0.339,0.25c0.43,0.304,0.867,0.597,1.318,0.87
		c-0.002,0.003-0.004,0.006-0.007,0.009c-0.422,0.559-0.864,1.115-1.323,1.67c-0.145,0.173-0.299,0.344-0.445,0.517
		c-0.322,0.378-0.645,0.755-0.982,1.13c-0.037,0.041-0.078,0.082-0.115,0.123l-8.268-8.269c0.041-0.036,0.08-0.076,0.121-0.112
		C-192.949,33.028-192.569,32.704-192.19,32.381z M-186.915,28.489c0.357-0.221,0.711-0.434,1.059-0.632
		c0.144-0.082,0.283-0.154,0.425-0.232c0.261-0.143,0.52-0.283,0.773-0.411c0.157-0.08,0.31-0.152,0.464-0.227
		c0.232-0.112,0.463-0.22,0.688-0.319c0.155-0.068,0.308-0.133,0.459-0.195c0.219-0.09,0.432-0.173,0.643-0.25
		c0.145-0.053,0.289-0.104,0.43-0.151c0.21-0.07,0.414-0.13,0.615-0.187c0.129-0.036,0.259-0.075,0.383-0.105
		c0.215-0.052,0.418-0.09,0.621-0.125c0.098-0.017,0.201-0.04,0.297-0.053c0.291-0.04,0.57-0.063,0.83-0.063
		c0.717,0,1.232,0.154,1.537,0.458c0.066,0.067,0.127,0.146,0.18,0.235c0.018,0.029,0.03,0.065,0.046,0.098
		c0.032,0.063,0.063,0.128,0.09,0.2c0.015,0.044,0.026,0.094,0.038,0.141c0.02,0.071,0.039,0.142,0.053,0.22
		c0.01,0.055,0.016,0.114,0.023,0.173c0.009,0.079,0.018,0.159,0.021,0.245c0.004,0.064,0.004,0.134,0.004,0.202
		c0,0.088-0.001,0.179-0.006,0.272c-0.004,0.075-0.01,0.152-0.018,0.23c-0.008,0.097-0.02,0.196-0.033,0.299
		c-0.012,0.083-0.023,0.168-0.039,0.255c-0.018,0.106-0.039,0.218-0.063,0.33c-0.02,0.09-0.038,0.181-0.061,0.273
		c-0.027,0.117-0.061,0.239-0.094,0.361c-0.025,0.098-0.051,0.193-0.081,0.293c-0.038,0.13-0.083,0.264-0.128,0.398
		c-0.032,0.1-0.063,0.197-0.1,0.3c-0.053,0.148-0.112,0.303-0.172,0.457c-0.037,0.096-0.07,0.189-0.109,0.287
		c-0.08,0.196-0.168,0.399-0.26,0.604c-0.026,0.062-0.05,0.119-0.078,0.182c-0.121,0.267-0.252,0.54-0.392,0.819
		c-0.046,0.094-0.1,0.191-0.148,0.286c-0.099,0.191-0.198,0.384-0.306,0.581c-0.063,0.114-0.132,0.232-0.197,0.349
		c-0.104,0.184-0.206,0.366-0.316,0.553c-0.075,0.128-0.156,0.259-0.235,0.388c-0.077,0.128-0.157,0.256-0.238,0.386
		c-0.01-0.006-0.021-0.011-0.03-0.017c-0.049-0.029-0.096-0.063-0.145-0.092c-0.363-0.221-0.718-0.454-1.064-0.697
		c-0.123-0.086-0.243-0.176-0.363-0.265c-0.281-0.207-0.557-0.422-0.827-0.644c-0.112-0.093-0.226-0.184-0.336-0.278
		c-0.364-0.314-0.722-0.638-1.063-0.979s-0.665-0.699-0.979-1.064c-0.095-0.109-0.185-0.222-0.276-0.333
		c-0.223-0.271-0.439-0.548-0.646-0.83c-0.088-0.12-0.178-0.239-0.263-0.36c-0.243-0.346-0.475-0.699-0.694-1.062
		c-0.031-0.051-0.066-0.1-0.097-0.151c-0.007-0.011-0.011-0.021-0.018-0.032c0.007-0.004,0.014-0.009,0.021-0.014
		C-187.033,28.559-186.976,28.526-186.915,28.489z M-176.629,36.089c0.159-0.276,0.311-0.551,0.458-0.822
		c0.051-0.096,0.106-0.192,0.156-0.287c0.19-0.362,0.369-0.72,0.536-1.072c0.042-0.089,0.078-0.175,0.119-0.264
		c0.121-0.264,0.237-0.525,0.346-0.783c0.052-0.125,0.099-0.247,0.147-0.37c0.088-0.22,0.17-0.437,0.247-0.65
		c0.046-0.128,0.089-0.254,0.132-0.381c0.07-0.21,0.134-0.416,0.193-0.621c0.035-0.118,0.071-0.236,0.102-0.352
		c0.063-0.23,0.115-0.457,0.164-0.681c0.018-0.081,0.04-0.165,0.057-0.245c0.002-0.016,0.008-0.032,0.01-0.048
		c1.498,2.606,2.362,5.527,2.525,8.588c-0.111-0.006-0.223-0.012-0.334-0.02c-0.245-0.019-0.49-0.042-0.734-0.068
		c-0.205-0.023-0.409-0.046-0.613-0.075c-0.256-0.036-0.512-0.082-0.766-0.129c-0.182-0.033-0.364-0.062-0.545-0.1
		c-0.415-0.088-0.827-0.189-1.235-0.305c-0.143-0.04-0.282-0.089-0.425-0.132c-0.29-0.089-0.58-0.181-0.865-0.282
		c-0.057-0.021-0.113-0.044-0.17-0.065c0.088-0.144,0.168-0.284,0.252-0.426C-176.79,36.362-176.708,36.225-176.629,36.089z
		 M-195.112,50.258c-0.29,0.184-0.58,0.365-0.865,0.534c-0.172,0.103-0.342,0.196-0.513,0.293c-0.263,0.149-0.522,0.296-0.78,0.432
		c-0.174,0.092-0.346,0.179-0.518,0.265c-0.246,0.123-0.49,0.241-0.73,0.352c-0.168,0.078-0.334,0.152-0.498,0.223
		c-0.236,0.102-0.466,0.194-0.693,0.281c-0.156,0.06-0.313,0.12-0.464,0.173c-0.229,0.08-0.449,0.148-0.667,0.213
		c-0.137,0.04-0.277,0.085-0.409,0.119c-0.232,0.06-0.452,0.103-0.67,0.143c-0.104,0.02-0.215,0.047-0.315,0.062
		c-0.312,0.045-0.609,0.071-0.885,0.071c-0.178,0-0.344-0.01-0.498-0.028c-0.055-0.007-0.098-0.021-0.149-0.03
		c-0.093-0.017-0.19-0.031-0.272-0.056c-0.079-0.023-0.143-0.057-0.212-0.087c-0.044-0.02-0.095-0.033-0.134-0.056
		c-0.074-0.041-0.133-0.092-0.192-0.143c-0.04-0.044-0.084-0.085-0.129-0.124c-0.05-0.058-0.099-0.115-0.14-0.185
		c-0.019-0.031-0.031-0.07-0.049-0.104c-0.033-0.067-0.066-0.136-0.093-0.213c-0.017-0.047-0.026-0.101-0.04-0.15
		c-0.02-0.075-0.039-0.149-0.053-0.232c-0.01-0.059-0.015-0.123-0.021-0.187c-0.008-0.083-0.017-0.168-0.02-0.258
		c-0.003-0.07-0.001-0.145,0-0.218c0.002-0.094,0.004-0.188,0.011-0.288c0.005-0.08,0.014-0.162,0.022-0.246
		c0.012-0.104,0.025-0.209,0.042-0.317c0.014-0.089,0.03-0.181,0.047-0.272c0.021-0.113,0.046-0.229,0.073-0.347
		c0.021-0.098,0.045-0.196,0.071-0.298c0.032-0.123,0.067-0.249,0.104-0.377c0.031-0.104,0.063-0.21,0.097-0.318
		c0.043-0.134,0.091-0.272,0.14-0.411c0.039-0.11,0.076-0.22,0.119-0.333c0.056-0.147,0.117-0.3,0.18-0.452
		c0.047-0.113,0.09-0.224,0.139-0.34c0.072-0.166,0.151-0.338,0.23-0.509c0.05-0.109,0.096-0.216,0.148-0.326
		c0.103-0.213,0.214-0.432,0.327-0.651c0.039-0.076,0.073-0.149,0.114-0.227c0.158-0.301,0.328-0.608,0.508-0.923
		c0.035-0.063,0.076-0.128,0.113-0.191c0.147-0.253,0.299-0.508,0.46-0.77c0.065-0.104,0.138-0.214,0.204-0.32
		c0.118-0.186,0.238-0.372,0.362-0.561c0.022,0.013,0.048,0.023,0.069,0.037c0.086,0.051,0.168,0.106,0.254,0.158
		c0.339,0.206,0.672,0.422,0.998,0.647c0.129,0.09,0.256,0.183,0.383,0.275c0.288,0.211,0.569,0.43,0.846,0.656
		c0.113,0.094,0.229,0.185,0.341,0.28c0.375,0.322,0.741,0.654,1.093,1.005c0.35,0.35,0.68,0.715,1,1.088
		c0.1,0.116,0.195,0.236,0.292,0.354c0.222,0.271,0.437,0.548,0.644,0.83c0.096,0.131,0.191,0.261,0.283,0.394
		c0.225,0.323,0.438,0.654,0.643,0.99c0.053,0.087,0.109,0.17,0.16,0.257c0.014,0.022,0.024,0.046,0.037,0.068
		c-0.025,0.017-0.053,0.036-0.078,0.054C-194.802,50.066-194.956,50.159-195.112,50.258z M-199.625,56.307
		c0.297-0.092,0.599-0.194,0.905-0.307c0.213-0.078,0.428-0.158,0.646-0.247c0.318-0.129,0.643-0.271,0.97-0.421
		c0.218-0.1,0.434-0.196,0.655-0.305c0.351-0.172,0.707-0.362,1.066-0.556c0.208-0.112,0.413-0.217,0.623-0.337
		c0.42-0.238,0.846-0.5,1.274-0.768c0.138-0.086,0.271-0.158,0.409-0.247c0.016,0.043,0.032,0.085,0.047,0.127
		c0.117,0.333,0.223,0.67,0.32,1.009c0.023,0.078,0.051,0.155,0.072,0.234c0.115,0.418,0.215,0.84,0.303,1.265
		c0.025,0.125,0.045,0.251,0.068,0.377c0.056,0.304,0.108,0.608,0.15,0.915c0.021,0.158,0.039,0.317,0.057,0.477
		c0.031,0.28,0.058,0.562,0.077,0.844c0.007,0.087,0.011,0.175,0.016,0.263c-2.832-0.153-5.55-0.91-8.005-2.206
		C-199.858,56.392-199.738,56.342-199.625,56.307z M-188.458,58.51c-0.004-0.096-0.02-0.189-0.026-0.284
		c-0.029-0.45-0.071-0.898-0.127-1.345c-0.017-0.135-0.028-0.27-0.048-0.403c-0.08-0.563-0.18-1.123-0.301-1.679
		c-0.025-0.118-0.058-0.235-0.085-0.353c-0.105-0.45-0.224-0.896-0.356-1.339c-0.047-0.157-0.094-0.313-0.145-0.47
		c-0.158-0.491-0.329-0.977-0.52-1.456c-0.019-0.045-0.031-0.093-0.05-0.138c0.118-0.09,0.235-0.186,0.353-0.277
		c0.156-0.121,0.313-0.244,0.469-0.367c0.4-0.317,0.799-0.644,1.195-0.978c0.119-0.101,0.238-0.197,0.357-0.3
		c0.504-0.432,1.004-0.876,1.5-1.333c0.106-0.098,0.211-0.199,0.316-0.298c0.264-0.247,0.529-0.493,0.792-0.747l7.09,7.09
		C-180.977,56.407-184.591,58.028-188.458,58.51z M-175.628,51.299l-7.068-7.068c0.051-0.056,0.096-0.113,0.146-0.169
		c0.588-0.648,1.158-1.302,1.701-1.96c0.039-0.048,0.074-0.096,0.113-0.144c0.498-0.608,0.973-1.221,1.43-1.835
		c0.055-0.072,0.115-0.145,0.17-0.217c0.068,0.028,0.142,0.049,0.211,0.076c0.455,0.183,0.916,0.349,1.383,0.501
		c0.136,0.045,0.271,0.091,0.408,0.133c0.545,0.167,1.096,0.318,1.653,0.445c0.081,0.019,0.163,0.032,0.243,0.05
		c0.495,0.106,0.993,0.195,1.494,0.271c0.142,0.021,0.283,0.043,0.425,0.062c0.568,0.073,1.138,0.131,1.71,0.162
		c0.017,0.001,0.033,0.004,0.049,0.005C-172.001,45.164-173.405,48.505-175.628,51.299z M-181.489,22.313
		c-0.092,0.021-0.184,0.042-0.276,0.064c-0.38,0.093-0.765,0.196-1.163,0.325c-0.01,0.003-0.019,0.007-0.027,0.01
		c-0.395,0.128-0.799,0.279-1.209,0.443c-0.1,0.039-0.198,0.079-0.299,0.12c-0.416,0.173-0.84,0.359-1.271,0.566
		c-0.051,0.025-0.104,0.054-0.156,0.079c-0.396,0.193-0.797,0.403-1.203,0.625c-0.103,0.056-0.203,0.109-0.307,0.167
		c-0.403,0.226-0.811,0.461-1.223,0.714c-0.018-0.05-0.039-0.1-0.057-0.149c-0.118-0.329-0.226-0.662-0.326-0.997
		c-0.029-0.096-0.063-0.19-0.09-0.287c-0.121-0.43-0.229-0.863-0.32-1.301c-0.022-0.109-0.039-0.221-0.061-0.331
		c-0.063-0.33-0.121-0.661-0.167-0.994c-0.022-0.156-0.039-0.313-0.058-0.471c-0.033-0.294-0.062-0.59-0.082-0.886
		c-0.006-0.091-0.011-0.181-0.016-0.271c3.049,0.166,5.965,1.029,8.563,2.514C-181.319,22.271-181.405,22.295-181.489,22.313z
		 M-193.308,19.861c0.006,0.094,0.021,0.187,0.027,0.279c0.029,0.463,0.073,0.924,0.131,1.384c0.017,0.135,0.029,0.27,0.049,0.403
		c0.082,0.575,0.185,1.146,0.31,1.712c0.024,0.111,0.056,0.221,0.081,0.331c0.11,0.464,0.234,0.923,0.372,1.379
		c0.048,0.159,0.097,0.317,0.149,0.476c0.16,0.491,0.334,0.977,0.527,1.455c0.021,0.052,0.036,0.106,0.058,0.158
		c-0.073,0.054-0.146,0.116-0.218,0.17c-0.604,0.45-1.207,0.918-1.807,1.407c-0.059,0.048-0.117,0.091-0.175,0.139
		c-0.655,0.54-1.306,1.108-1.952,1.694c-0.057,0.052-0.115,0.099-0.173,0.15l-7.069-7.068
		C-200.204,21.708-196.862,20.304-193.308,19.861z M-205.532,26.347l7.092,7.09c-0.102,0.104-0.191,0.213-0.292,0.317
		c-0.591,0.617-1.162,1.239-1.714,1.87c-0.108,0.124-0.223,0.246-0.33,0.371c-0.626,0.729-1.221,1.465-1.791,2.207
		c-0.056,0.072-0.119,0.143-0.175,0.215c-0.05-0.02-0.103-0.034-0.151-0.054c-0.475-0.188-0.954-0.358-1.439-0.515
		c-0.157-0.05-0.314-0.098-0.473-0.145c-0.441-0.132-0.889-0.25-1.338-0.355c-0.118-0.027-0.234-0.06-0.353-0.086
		c-0.556-0.12-1.114-0.22-1.678-0.3c-0.136-0.02-0.272-0.032-0.409-0.049c-0.445-0.055-0.892-0.098-1.339-0.126
		c-0.095-0.007-0.189-0.022-0.284-0.027C-209.726,32.894-208.106,29.279-205.532,26.347z"/>
	<path d="M-169.762,17.28c0,0-1.215-0.942-2.336,0.08c-1.135,1.034-0.138,2.394-0.138,2.394c4.9,4.825,7.945,11.528,7.945,18.932
		c0,14.658-11.926,26.584-26.584,26.584c-7.403,0-14.106-3.045-18.932-7.945c0,0-1.099-1.007-2.331,0.153
		c-1.232,1.183-0.142,2.32-0.142,2.32c5.458,5.534,13.036,8.972,21.404,8.972c0.17,0,0.338-0.002,0.507-0.005
		c16.354-0.271,29.577-13.66,29.577-30.079C-160.79,30.317-164.228,22.739-169.762,17.28z"/>
	<path d="M-174.04,81.003h-14.084v-8.552c0-0.966-0.783-1.75-1.75-1.75c-0.966,0-1.75,0.784-1.75,1.75v8.552h-14.082
		c-0.967,0-1.75,0.783-1.75,1.75c0,0.966,0.783,1.75,1.75,1.75h31.666c0.967,0,1.75-0.784,1.75-1.75
		C-172.29,81.786-173.073,81.003-174.04,81.003z"/>
</g>
<g>
	<path d="M-108.963,80.892l5.354-5.354l5.476,5.567c0.116,0.118,0.249,0.209,0.387,0.287l1.267-3.598l-5.871-5.969
		c-0.328-0.333-0.774-0.521-1.24-0.522c-0.443,0.039-0.915,0.183-1.245,0.513l-6.601,6.601c-0.684,0.684-0.684,1.791,0,2.475
		S-109.646,81.575-108.963,80.892z"/>
	<path d="M-42.48,46.369c-0.25-0.694-0.908-1.157-1.646-1.157s-1.396,0.463-1.646,1.157l-5.969,16.593l-9.688-26.924
		c-0.25-0.695-0.908-1.158-1.646-1.158s-1.397,0.463-1.646,1.158l-9.799,27.236l-6.076-16.886c-0.25-0.695-0.908-1.158-1.646-1.158
		s-1.396,0.463-1.646,1.158l-11.65,32.383c-0.003-0.003-0.005-0.006-0.008-0.008l-2.785,7.83c0,0-2.836,0.035-3.627,0.043v-2.773
		l2.463,2.504l1.293-3.675l-4.146-4.217c-0.328-0.333-0.774-0.521-1.24-0.522c-0.443,0.011-0.915,0.183-1.245,0.513l-6.601,6.601
		c-0.684,0.684-0.684,1.792,0,2.475c0.684,0.684,1.791,0.684,2.475,0l3.502-3.502v4.292c-0.002,0.029-0.008,0.057-0.008,0.087
		c0.01,0.96,0.791,1.732,1.749,1.732c0.007,0,0.013,0,0.019,0c2.04-0.021,4.083-0.03,6.125-0.048
		c5.063-0.042,10.123-0.072,15.186-0.091c5.268-0.019,10.523-0.025,15.771-0.019c2.323,0.003,4.644,0.007,6.961,0.015
		c5.245,0.018,10.466,0.049,15.663,0.093c-0.078,0.021-0.158,0.027-0.24,0.037h15.014c0.57,0,1.104-0.277,1.432-0.744
		c0.328-0.466,0.408-1.063,0.215-1.599L-42.48,46.369z M-44.127,52.131l2.549,7.086l-2.566,2.948l-2.57-2.84L-44.127,52.131z
		 M-63.076,41.8l3.65,10.146l-3.793,4.187l-3.629-3.853L-63.076,41.8z M-82.244,52.149l2.572,7.149l-2.496,2.866l-2.633-2.909
		L-82.244,52.149z M-82.963,86.657H-94.66l0.028-0.077l8.488-23.593l2.704,2.987c0.332,0.367,0.803,0.576,1.297,0.576
		c0.006,0,0.012,0,0.018,0c0.5-0.005,0.975-0.224,1.303-0.602l2.508-2.88l1.933,5.374L-82.963,86.657z M-60.27,86.663h-5.838
		h-13.109l0.002-0.006h-0.028l4.722-13.045l1.859-5.169l4.486-12.47l3.709,3.937c0.33,0.352,0.791,0.551,1.273,0.551
		c0.006,0,0.012,0,0.018,0c0.488-0.005,0.951-0.214,1.279-0.575l3.813-4.21l4.481,12.455l1.86,5.169l4.771,13.363H-60.27z
		 M-40.023,86.638h-3.201h-0.035l-6.623-18.507l1.825-5.074l2.642,2.918c0.332,0.367,0.803,0.576,1.297,0.576
		c0.006,0,0.012,0,0.018,0c0.5-0.005,0.975-0.224,1.303-0.602l2.578-2.961l8.51,23.649H-40.023z"/>
	<path d="M-108.963,74.242l5.354-5.354l5.476,5.567c0.343,0.349,0.795,0.522,1.247,0.522c0.443,0,0.887-0.167,1.228-0.502
		c0.688-0.678,0.698-1.786,0.021-2.475l-6.713-6.825c-0.328-0.333-0.774-0.521-1.24-0.522c-0.443-0.026-0.915,0.182-1.245,0.512
		l-6.601,6.602c-0.684,0.684-0.684,1.792,0,2.475C-110.754,74.926-109.646,74.926-108.963,74.242z"/>
	<path d="M-103.999,37.654c3.485,0,6.321-2.836,6.321-6.321s-2.836-6.321-6.321-6.321s-6.321,2.836-6.321,6.321
		S-107.484,37.654-103.999,37.654z M-103.999,28.512c1.556,0,2.821,1.266,2.821,2.821s-1.266,2.821-2.821,2.821
		s-2.821-1.266-2.821-2.821S-105.555,28.512-103.999,28.512z"/>
	<path d="M-46.84,17.121c0.012,0,0.021,0,0.031,0c0.057,0.002,5.041-0.061,7.791,2.689c0.328,0.328,0.758,0.492,1.189,0.492
		c0.098,0,0.195-0.012,0.293-0.027c0.096,0.016,0.193,0.027,0.293,0.027c0.43,0,0.859-0.164,1.188-0.492
		c2.736-2.736,7.688-2.691,7.789-2.689c0.932,0.024,1.695-0.713,1.717-1.641c0.021-0.927-0.713-1.696-1.641-1.718
		c-0.24-0.011-5.559-0.087-9.346,2.89c-3.789-2.975-9.109-2.892-9.346-2.89c-0.928,0.021-1.66,0.788-1.641,1.714
		C-48.502,16.393-47.752,17.121-46.84,17.121z"/>
	<path d="M-58.158,25.175c0.039,0,3.785-0.033,5.857,2.553c0.33,0.414,0.818,0.63,1.313,0.63c0.078,0,0.154-0.027,0.232-0.039
		c0.078,0.012,0.154,0.039,0.234,0.039c0.492,0,0.98-0.216,1.313-0.63c2.066-2.581,5.773-2.559,5.861-2.552
		c0.92,0.025,1.695-0.705,1.723-1.631c0.027-0.928-0.703-1.701-1.631-1.728c-0.199-0.008-4.371-0.083-7.5,2.69
		c-3.129-2.772-7.299-2.694-7.5-2.69c-0.928,0.026-1.656,0.8-1.631,1.728C-59.859,24.472-59.078,25.235-58.158,25.175z"/>
</g>
<g>
	<path d="M22.758,43.438H79.51c0.967,0,1.75-0.784,1.75-1.75c0-0.967-0.783-1.75-1.75-1.75H22.758c-0.967,0-1.75,0.783-1.75,1.75
		C21.008,42.654,21.791,43.438,22.758,43.438z"/>
	<path d="M68.215,52.669c-0.945-0.214-1.879,0.384-2.09,1.327c-2.432,10.905-13.816,11.5-14.301,11.52
		c-0.963,0.037-1.715,0.848-1.68,1.813c0.033,0.944,0.811,1.687,1.748,1.687c0.021,0,0.043-0.001,0.064-0.001
		c0.145-0.006,14.557-0.684,17.584-14.256C69.752,53.814,69.158,52.879,68.215,52.669z"/>
	<path d="M83.014,51.899c-0.328-0.332-0.775-0.519-1.244-0.519h-3.719c0.092-0.905,0.139-1.822,0.139-2.751l-0.01-0.456
		c-0.016-0.954-0.795-1.72-1.75-1.72H25.838c-0.957,0-1.738,0.769-1.75,1.726l-0.004,0.149c-0.004,0.1-0.008,0.199-0.008,0.301
		c0,0.929,0.047,1.846,0.139,2.751h-3.609c-0.467,0-0.916,0.187-1.244,0.52c-0.33,0.332-0.512,0.782-0.506,1.25l0.016,1.569
		c0.008,0.962,0.789,1.735,1.75,1.735c0.004,0,0.01,0,0.014,0c0.902-0.008,1.641-0.696,1.727-1.574h2.451
		c1.758,7.396,6.555,13.621,12.998,17.283L26.84,90.602c-0.494,0.83-0.223,1.904,0.609,2.398c0.279,0.167,0.588,0.247,0.893,0.247
		c0.598,0,1.178-0.306,1.506-0.855l11.123-18.693c3.141,1.278,6.568,1.988,10.162,1.988c3.6,0,7.033-0.713,10.178-1.994
		l11.127,18.699c0.328,0.55,0.908,0.855,1.506,0.855c0.305,0,0.613-0.08,0.893-0.247c0.832-0.494,1.104-1.568,0.609-2.398
		L64.469,72.156c6.436-3.662,11.229-9.885,12.984-17.275h2.561c0.088,0.878,0.824,1.566,1.727,1.574c0.004,0,0.01,0,0.016,0
		c0.959,0,1.74-0.773,1.748-1.735l0.016-1.571C83.525,52.682,83.342,52.231,83.014,51.899z M51.133,72.187
		c-12.545,0-22.832-9.856-23.52-22.232h47.039C73.965,62.33,63.678,72.187,51.133,72.187z"/>
	<path d="M48.9,21.073l1.674,0.817c0.342,0.174,3.316,1.773,2.326,4.594c-1.053,2.997-5.051,2.834-5.213,2.827
		c-0.982-0.055-1.793,0.68-1.85,1.645c-0.057,0.964,0.68,1.793,1.645,1.85c0.033,0.002,0.156,0.008,0.354,0.008
		c1.428,0,6.67-0.337,8.367-5.17c1.631-4.647-1.953-7.847-4.08-8.892l-1.645-0.803c-0.342-0.182-3.322-1.853-2.355-4.608
		c1.076-3.063,5.016-2.84,5.191-2.828c0.949,0.064,1.797-0.65,1.869-1.611c0.074-0.964-0.646-1.805-1.611-1.879
		c-2.336-0.183-7.174,0.669-8.75,5.158C43.225,16.729,46.77,19.976,48.9,21.073z"/>
	<path d="M34.305,23.965l1.246,0.608c0.361,0.185,2.133,1.194,1.531,2.911c-0.68,1.934-3.369,1.834-3.473,1.828
		c-0.957-0.061-1.793,0.679-1.85,1.645c-0.057,0.965,0.68,1.793,1.645,1.85c0.129,0.007,0.264,0.012,0.404,0.011
		c2.07,0,5.412-0.863,6.576-4.174c1.322-3.774-1.564-6.364-3.283-7.208l-1.229-0.6c-0.088-0.045-2.172-1.143-1.549-2.919
		c0.691-1.967,3.311-1.839,3.449-1.831c0.953,0.063,1.797-0.651,1.871-1.611c0.072-0.964-0.648-1.806-1.611-1.879
		c-2.014-0.149-5.742,0.55-7.012,4.161C29.725,20.452,32.58,23.076,34.305,23.965z"/>
	<path d="M64.033,24.06c0.75,0.42,1.457,0.816,1.916,1.363c0.592,0.702,0.723,1.411,0.389,2.105
		c-0.426,0.888-1.711,1.82-3.469,1.781c-0.941-0.026-1.77,0.741-1.793,1.708c-0.023,0.966,0.742,1.768,1.709,1.791
		c0.063,0.002,0.127,0.003,0.191,0.003c2.824,0,5.428-1.498,6.518-3.768c0.928-1.933,0.604-4.129-0.867-5.875
		c-0.869-1.033-1.938-1.633-2.879-2.162c-1.182-0.663-1.865-1.079-2.156-1.921c-0.314-0.913-1.313-1.397-2.225-1.081
		c-0.914,0.316-1.398,1.313-1.082,2.227C61.025,22.37,62.693,23.307,64.033,24.06z"/>
	<path d="M64.289,16.625c0.275,0,0.553-0.064,0.813-0.201c0.578-0.303,1.035-0.378,2.039-0.335c0.951,0.029,1.783-0.707,1.824-1.673
		c0.043-0.966-0.707-1.782-1.672-1.824c-1.342-0.057-2.506,0.045-3.818,0.733c-0.855,0.449-1.186,1.508-0.736,2.363
		C63.053,16.284,63.66,16.625,64.289,16.625z"/>
</g>
</svg>
