<?xml version="1.0" encoding="utf-8"?>
<!-- Generator: Adobe Illustrator 16.0.0, SVG Export Plug-In . SVG Version: 6.00 Build 0)  -->
<!DOCTYPE svg PUBLIC "-//W3C//DTD SVG 1.0//EN" "http://www.w3.org/TR/2001/REC-SVG-20010904/DTD/svg10.dtd">
<svg version="1.0" id="Layer_1" xmlns="http://www.w3.org/2000/svg" xmlns:xlink="http://www.w3.org/1999/xlink" x="0px" y="0px"
	 width="100px" height="100px" viewBox="0 0 100 100" enable-background="new 0 0 100 100" xml:space="preserve">
<path d="M90,70c0,7.81-3.167,14.88-8.288,20H18.288C13.167,84.88,10,77.81,10,70H90z"/>
<path d="M78.333,21.341C73.555,18.581,67.435,20.218,64.675,25c-2.175,3.766-1.586,8.333,1.08,11.465l-6.631,11.478
	c-6.285-1.729-12.711-1.605-18.694,0.127l-7.419-20.384c3.174-2.621,4.541-7.015,3.051-11.104
	c-1.889-5.189-7.617-7.865-12.813-5.977c-5.189,1.888-7.865,7.63-5.977,12.819c1.484,4.085,5.364,6.572,9.476,6.54l7.503,20.612
	c-5.605,2.848-10.557,7.136-14.166,12.757h59.814c-3.51-5.459-8.461-9.944-14.492-12.933l6.119-10.602
	c4.047,0.745,8.291-1.032,10.466-4.798C84.753,30.215,83.122,24.105,78.333,21.341z"/>
</svg>
